/* XPM */
static char *_0e3b0467f7c4acb83977d0cd05494dcXNaxtiKay9pMkGy1[] = {
/* columns rows colors chars-per-pixel */
"64 64 256 2 ",
"   c #020304",
".  c #070908",
"X  c #0D0C0B",
"o  c #140C0B",
"O  c #0F100B",
"+  c #13130C",
"@  c #18190C",
"#  c #120E11",
"$  c #151311",
"%  c #1B1512",
"&  c #1C1C13",
"*  c #1A1A19",
"=  c #23150D",
"-  c #221D14",
";  c #281816",
":  c #321D19",
">  c #1B2309",
",  c #1F2114",
"<  c #1E221A",
"1  c #282B0E",
"2  c #232315",
"3  c #2B2415",
"4  c #252A14",
"5  c #2A2A15",
"6  c #25241A",
"7  c #2A241A",
"8  c #26291C",
"9  c #2B2B1B",
"0  c #362617",
"q  c #342B15",
"w  c #34241B",
"e  c #332C1B",
"r  c #3B2B1C",
"t  c #2B3415",
"y  c #2E311C",
"u  c #363617",
"i  c #33331D",
"p  c #3B341D",
"a  c #3B3B1C",
"s  c #1C1B24",
"d  c #1C2125",
"f  c #292423",
"g  c #2D2C22",
"h  c #372722",
"j  c #322D22",
"k  c #3C2C22",
"l  c #2F3325",
"z  c #343323",
"x  c #3B3523",
"c  c #363A21",
"v  c #3B3C24",
"b  c #38342A",
"n  c #3C3B2A",
"m  c #3D3B33",
"M  c #432A1D",
"N  c #45361A",
"B  c #443C1C",
"V  c #67321D",
"C  c #462C25",
"Z  c #493626",
"A  c #433C23",
"S  c #423C2B",
"D  c #59332E",
"F  c #563928",
"G  c #4A3B33",
"H  c #6A342A",
"J  c #3B471A",
"K  c #3E5412",
"L  c #3D4325",
"P  c #3B4137",
"I  c #47471C",
"U  c #4A431B",
"Y  c #554A1C",
"T  c #465818",
"R  c #58551F",
"E  c #4C6818",
"W  c #55681A",
"Q  c #4F751B",
"!  c #54741D",
"~  c #537A1D",
"^  c #62631E",
"/  c #444224",
"(  c #4B4323",
")  c #494B27",
"_  c #43432B",
"`  c #4B442B",
"'  c #534424",
"]  c #594727",
"[  c #534C24",
"{  c #544B2C",
"}  c #5B4C2B",
"|  c #4A5526",
" . c #4C5B23",
".. c #535223",
"X. c #5B5324",
"o. c #595A26",
"O. c #55532B",
"+. c #5C542A",
"@. c #5D5B2A",
"#. c #454332",
"$. c #4A4534",
"%. c #4A4837",
"&. c #564A35",
"*. c #4C5337",
"=. c #595638",
"-. c #69492B",
";. c #63552B",
":. c #665629",
">. c #625C2B",
",. c #6C5C2D",
"<. c #674836",
"1. c #774A36",
"2. c #655734",
"3. c #6B5D32",
"4. c #735C36",
"5. c #576826",
"6. c #5E632D",
"7. c #577825",
"8. c #596534",
"9. c #5A7730",
"0. c #64672C",
"q. c #6A622D",
"w. c #73632F",
"e. c #63762C",
"r. c #647C2C",
"t. c #656634",
"y. c #6C6333",
"u. c #6D6B33",
"i. c #776838",
"p. c #687838",
"a. c #77753C",
"s. c #574E42",
"d. c #4E5141",
"f. c #5A5646",
"g. c #5A5952",
"h. c #655A46",
"j. c #6B574F",
"k. c #785846",
"l. c #5C674A",
"z. c #686648",
"x. c #786D4E",
"c. c #66744A",
"v. c #787845",
"b. c #6A6757",
"n. c #756B58",
"m. c #6C7456",
"M. c #71706E",
"N. c #797768",
"B. c #894E3A",
"V. c #856B39",
"C. c #8E7039",
"Z. c #A17D3F",
"A. c #885747",
"S. c #8F564B",
"D. c #935847",
"F. c #A45E40",
"G. c #876649",
"H. c #867947",
"J. c #8E724E",
"K. c #896853",
"L. c #996B55",
"P. c #97745C",
"I. c #A96B54",
"U. c #A4785B",
"Y. c #837B69",
"T. c #957665",
"R. c #837A76",
"E. c #AB7664",
"W. c #B47C6A",
"Q. c #518219",
"!. c #5E8728",
"~. c #688529",
"^. c #728F2F",
"/. c #668439",
"(. c #76853A",
"). c #7B8944",
"_. c #728752",
"`. c #799359",
"'. c #778966",
"]. c #7A9268",
"[. c #818148",
"{. c #838359",
"}. c #AB8A59",
"|. c #88876A",
" X c #888578",
".X c #958F74",
"XX c #948A78",
"oX c #A88868",
"OX c #B48F73",
"+X c #B98876",
"@X c #C48A79",
"#X c #C49A71",
"$X c #C1A077",
"%X c #787882",
"&X c #817F8B",
"*X c #7D8080",
"=X c #888684",
"-X c #948B87",
";X c #918E8D",
":X c #98958A",
">X c #989897",
",X c #AE9686",
"<X c #A19C98",
"1X c #A7A797",
"2X c #B3A799",
"3X c #A0A1A5",
"4X c #AAA8A7",
"5X c #B5ACA9",
"6X c #B6B5AD",
"7X c #B0AEB3",
"8X c #B9B5B7",
"9X c #C4978E",
"0X c #CFA998",
"qX c #D1B4A2",
"wX c #C2BBB9",
"eX c #E6BEA7",
"rX c #C9C1B8",
"tX c #EBC8AF",
"yX c #BBBDC4",
"uX c #C2BDC2",
"iX c #BEC0C6",
"pX c #C4C2C4",
"aX c #C9C6C7",
"sX c #CCCACC",
"dX c #CCCCD2",
"fX c #D2CCD0",
"gX c #D1CED3",
"hX c #D6C7DB",
"jX c #D3D2D5",
"kX c #D5D5DA",
"lX c #D8D6D8",
"zX c #DAD7DB",
"xX c #DBDADD",
"cX c #E6DAD7",
"vX c #D8D7E3",
"bX c #DDDDE2",
"nX c #E1DEE3",
"mX c #E1DFE8",
"MX c #E8DFF0",
"NX c #DEE0E5",
"BX c #DFE0E9",
"VX c #E3E2E5",
"CX c #E5E4E9",
"ZX c #E6E6E9",
"AX c #E7E7EA",
"SX c #E9E6EB",
"DX c #EBEAEC",
"FX c #F0EDEE",
"GX c #ECE4F1",
"HX c #EEECF1",
"JX c #F2EDF2",
"KX c #F3E8F7",
"LX c #F4F2F4",
"PX c #F7F4F8",
"IX c #F9F5FA",
"UX c #FCFAFD",
/* pixels */
"2 - g b 9 g.N.b j e x #.%.s.2XrXn.uXPXAXDXDXAXBXNXNXAXAXAXDXDXDXDXAXVXxXzXzXkXxXxXvXbXBXCXNXBXNXbXNXBXBXBXBXBX3X*X3X=XN.b.g.3X7X",
"6 6 f 6 g j j b g 6 7 G d.G :X2XY.6XPXAXDXDXHXAXNXNXNXNXAXAXDXAXAXAXVXxXjXdXdXjXjXbXVXCXCXBXBXbXNXBXBXNXBXBXdX7X:XyX*XM.b.g.;X;X",
"l f g 9 2 , g j g.b &X;X$.k n.2X'.aXFXAXAXAXDXAXAXAXVXNXxXVXCXAXCXVXxXjXjXsXdXjXjXBXAXCXCXNXNXbXNXBXNXNXBXBX>X*XyX6X>X].f.N.*X=X",
"n 6 6 - m G j 3 b M.vX;Xm j b ;XsXAXVXVXCXCXAXDXAXAXAXNXVXxXVXVXVXxXxXjXjXdXdXjXvXAXCXCXCXNXNXbXvXvXbXNXBXBX7X'.3X3X4Xl.d.g.b.d.",
"g f , 6 #.b.%.b 9 b &Xf.%.h.&.-XAXVXVXNXNXVXVXAXDXDXAXAXNXNXxXxXbXbXxXxXjXjXjXjXxXAXAXSXCXBXBXvXNXkXvXvXvXNX3XM.3X3Xb.M.M.c L z ",
"6 & , 6 m b.f.j j 3 - j s.z.b.R.VXNXVXNXNXxXnXNXAXDXAXVXNXbXVXVXVXVXVXCXnXbXxXlXxXAXAXAXAXBXCXbXvXkXkXvXNXvX%XM.yXyXg.d.N.L 8 g ",
"% $ & b g.g.R.j.$.$.$.h.h.s.%.-XVXVXVXxXxXVXxXNXNXVXVXVXVXxXNXCXAXAXAXSXAXAXAXbXkXCXAXCXBXNXbXbXNXkXkXvXvXBXyXM.>X>Xb.g.d.n , 1 ",
"& @ 6 g G b g. X:X4X-XR.R.-X7XkXAXVXVXNXxXVXNXNXNXNXVXAXVXVXbXVXCXAXCXCXDXDXFXAXkXxXAXVXbXkXbXvXvXkXvXkXvXdX3X*X7XM.d.*.L 8 y y ",
"& % 6 j 9 9 g s.4XfXaX>XhXKXPXDXVXVXNXVXVXNXNXNXxXVXVXVXVXVXxXVXVXCXCXAXDXHXDXHXCXkXxXxXkXkXdXhXbXvXvXvXvXkX%X;XyX>XP s d 8 8 y ",
"$ % & 8 6 e b g $.n.R.N.cXSXCXCXAXVXNXxXNXVXNXxXxXxXxXNXxXNXVXNXVXVXAXDXDXHXHXHXHXNXdXkXkXbX5X].iXvXvXvXvXvXdXM.%X3X%XP f , t y ",
"& & & - j %.G &.G G G f.8XJXCXVXNXxXxXxXxXxXlXxXkXjXkXxXVXVXxXVXCXVXCXAXDXDXLXHXFXVXsXsXjXkX5X%.b.sXvXvXvXBXHXyX*XiXdX%Xl 8 y 8 ",
"7 3 - & j f.s.R.uXwXn.` R.HXDXnXxXxXxXxXxXxXlXjXsXjXjXjXxXxXVXCXnXVXCXAXDXDXDXLXFXVXjXaXaXaX8Xj.i M.bXBXBXyX*XsXdX%X>Xg.n b < , ",
"4 z 7 9 b *.$.4XKXIX7X*.4XLXDXVXxXVXVXVXVXVXNXxXkXjXdXjXjXlXxXxXnXVXAXAXDXDXDXDXAXxXjXsXpXuX>X=.) _ =XyX3X_.%.*.d.L y L L g * % ",
"2 z g G h.h.S -XIXJXJX7XjXPXDXCXxXVXCXAXDXFXAXAXNXxXkXjXjXjXdXjXlXnXCXCXAXDXDXCXxXdXdXsXpX8X=XP._ y f.8XN.c.=.*._ ) v c v c , , ",
"- - 9 #.f.n.b.4XIXJXPXUXLXHXLXAXNXVXVXVXCXFXFXFXAXNXNXjXjXdXfXfXjXxXnXxXVXVXbXjXaXaXpXpXaXpX4X:X%.& P sX=X2.O.{ L L L i v c 8 8 ",
"- - 3 i s.N.R.fXLXIXPXPXPXIXLXCXNXVXVXVXAXFXFXFXFXAXNXNXcXjXjXzXxXxXbXxXzXlXjXaXpXpXaXjXxXAXlX=X9 > c f.h.x.*._ n n n z n z z i ",
"2 & 7 e %.N. XaXIXPXIXIXLXPXPXCXVXAXCXVXVXFXLXLXLXFXFXVXVXAXAXAXVXCXVXVXxXxXnXnXxXxXVXVXSXDXxXM.z 6 9 v 2.x.=._ v 9 8 y c 9 7 8 ",
"- 2 7 j n z.<X<XsXUXPXLXPXPXPXAXVXAXDXCXCXDXFXLXLXFXFXFXAXAXFXFXDXVXxXxXnXnXVXVXAXAXCXDXCXFX4Xb z j 7 a [ Y.z.y 2 i 9 9 8 & & 8 ",
"& - 2 g S b.XXb.4XUXUXUXPXPXPXzXjXDXAXAXDXFXFXLXLXLXLXFXFXAXFXFXCXVXjXjXlXxXVXVXVXVXVXAXCXUX>X2 _ _ z.=./ =.z.h.z 9 , 2 8 6 O + ",
"- & 3 i S h.|.N.:XpXaX6XDXPXUXrXpXLXCXCXDXDXLXLXLXLXLXFXFXAXAXAXDXVXVXbXlXlXnXnXNXcXlXlXsXwXj.n I { =.{ A q S *._ z 9 5 6 & O . ",
"- 2 b %.n.$.n.|.:XXXY.Y.sXUXUX8X>XAXAXAXFXLXLXFXLXLXLXFXDXFXDXVXVXAXVXVXVXxXxXnXlXsXsXrXK.G j h.&.A p p v i 5 y n n 9 , 2 @ X X ",
"- 2 S #.XXb.&.|.|.Y.c.Y.1XAXUX6XN.xXPXLXLXIXLXLXFXFXDXAXDXDXVXVXVXAXAXVXnXnXCXfXlXrX6XT.N : : ` =.> 5 A 5 i y 9 i n 9 6 8 < . . ",
"8 2 #.n j.R.s.&.z.y.v..X1XlXPX5XM.aXUXLXLXPXFXFXDXAXAXAXAXAXVXAXVXAXVXFXKXJX-Xk.k.E.OXL.D = % - 6 w $.$., t 9 9 y 9 c 8 , < X . ",
"7 7 j k n.wX4Xg.f.x.x.5XDXDXlX-XN.wXUXFXLXLXFXCXVXnXcXAXAXcXVXVXVXVXAXrX5X2XS.k.1.V 1.1.D ; o o g.2Xs.r 3 2 y n b 2 > 8 z 6 . . ",
"7 6 7 v f.>XKXhXR.T.<XwXJXIXnX:Xb.sXFXCXCXSXnXzXnXbXnXCXSXDXAXCXAXVXnXj.D V B.1.<.H V V M % . # g.j.S 5 5 + , 8 y , + & & X . X ",
"2 2 9 _ h.Y.DXPXfXhXAXPXIXIXUX<XR.VXFXVXnXnXnXnXcXxXxXrX6X:XsXDXcXVXnXY.S.D.G.1.H H H D C o % $ 3 5 A p i 2 @ 8 8 b > O @ + O X ",
"& & 3 S n.XX8XuXfXGXSXUXIXIXUXsX5XLXDXCXCXmXmXnXNXxX.X_.{.v.|.dXSXMXwXT.U.L.A.F D D H D C % # % @ 2 =.*.a 9 & 7 L y < O + + + X ",
"2 - 9 n n. X>XR.uXSXnXVXIXIXUXVXaXJXDXSXCXVXVXnXCX1Xv.H.).v._.|.5XxXwXK.I.D.A.<.D D D D D h G b l v =._ 9 2 2 7 #.i z < & + + O ",
"2 & i A d.>XzXsXcXPXjX6XlXUXIXAXzXLXJXCXVXnXCXCXxX{.u.v.c.p.a.|.Y.<X-XK.D.D.D.D h D C q G j e 9 z _ i 5 3 l 9 @ , y 9 8 , + O # ",
"6 6 9 v f.;XfXDXGXKXVX6XrXPXUXDXjXPXGXSXCXGXDXDXrXv.v.v.c.a.u.c.m.N.h.4.B.B.L.<.: C M : h e 9 2 & z c p z z y & & @ O + , + + < ",
"2 2 z b ) N.-XxXMXMX8XwX4XAXUXlX8XJXDXSXSXGXSXJX:Xv.u.v.v.a.u.| ` S S 1.D.S.S.k.M D Z w r 9 , 7 2 , n _ v L L z , 8 @ + + , < , ",
"- 6 j *.v u #.aXKXmX>X2X<XxXUXjX8XFXJXJXJXFXFXJX'.H..X.Xz.Y.v.=.x 7 b <.S.S.A.H D D D M 7 j & 2 < @ $._ u i z y 2 < , & & 2 , & ",
"6 2 9 b.-Xy c '.vXyX:X1X X8XDXcXfXJXHXHXJXPXLXKXN.{.qX Xb S =.v.h.j 7 <.A.S.A.<.&.D Z C & & , & < % g L J i z c 8 6 8 2 & 6 2 , ",
"j 6 8 g.:X#.y L *X'.'.:X'.>XpXxXxXJXHXLXAXxXCXPX:X.Xc.*.2 * e x.z.G w F S.S.A.<.q C C C 7 & * X + $ , #.5 L 9 , , % & 8 , @ 2 2 ",
"b 7 7 %.*.J 5 c f.l.b.:XN.;X4XaXDXPXHX8XXXXXXXN.n.f.z 9 g 9 3 &.;.$.; ] S.S.S.D : w C h j * X # X # $ z z y z 2 + < & & * & & & ",
"j 7 y L L i 8 L O._ m. Xm.m.<X6XKXnXxX1Xz.z.=._ v u 9 9 l g 3 v &.A ; F A.S.S.H : : G b f - $ X X X X * c z 8 9 + X < & $ % X X ",
"g 9 3 v #.L b n *.*._ *.b.l.b.6XcX4X:XN.8.=.*.L i z z 6 g m l z n n : G k.1.A.s.k w k b 6 % O X . . . $ 8 9 3 , * & - & O $ O . ",
"g g 6 n n v z P _ _ n z #._ #.|.XXN.*._ l.P *.z.*.b 6 l c g z 9 5 z - n r p F C o X ; ; $ .             $ % & 3 8 % , X . + X . ",
"9 g 6 9 z #.z v S A m b g c 8.m._.c.c.c.l./.c.c.'.c.*.*.].l @ < 6 - $ - d.P w 3 & + O @ > > @ @ + > t J  .t J u 8 @ 2 5 , X + O ",
"g 6 9 a L L c 9 z S j 8 g P _._.`.].].'.'.'.`.`.`.`.].`._.9.L L |  .|  .p.p.5.9.7.Q Q E 7.~ E E E ! ~.^.~.~.~ r.L & { y.>.+ $ * ",
"g 6 i p. .I J 8.| 8.| L | 9./././././.).`.`.`._.(./.!.!.9.!.~.!.!.!.!.!.Q.Q.Q.Q.Q.~ ~ ~ Q E E K T E W E W ! ^ W K 3 ;.R R q o $ ",
"f 6 ) p.o.5. .)._.p.5.5.9.p.9.9.9.9.r.9.~ r.7.~ 7.7.7.!.7.7.7.Q 7.~ ~ ~ ~ Q.Q Q Q Q E E E T E E T E T E W W W W ).6.Y Y Y Y X $ ",
"j 7 J T  . . . .E 5. . .5.5.9.5.9./.!.r.r.r.~.r.7.7.Q.7.7.7.7.Q ! ~ ~ Q.7.7.~ 5.5.W T K T T T T K K J K T W W W >.[ u N ' { ; X ",
"L y t J L J K J J | T T | | 9.).).).(.(.(.r.p.r.r.(./.r.7.7.7.! Q 7.7.9.r.5.T ..6.5.5.! 5.5.5. .T K W 5.e.0.e.R Y I q 0 Z Z s $ ",
"L u u u J J J J J J I J J 9.(.(.(.^.).).).a.(.C.).[.H.v.a.a.a.a.a.a.u.u.3.} +.t.0.@.t.0.6.0.o.u.u.0.5.e.0.u.R U N B { Z p 3 % % ",
"L u 4 3 a J J J a J J I t.a.a.>.w.w.w.a.V.v.i.a.k.4.4.4.w.w.i.i.v.4.-.;.[ } @.+.X.2.3.v.y.q.@.>.0.@.o.X.X...I U [ ] N F N q ; ; ",
"9 3 7 9 q e e p ( ) ) +.O.Z C C Z F F F Z <.} F F C C M -.} ] F M N F -.} ] 2.-.} } ;.3.i.y.y.{ U [ [ X.Y Y Y N M Y ' N N r f s ",
"3 2 e e 3 w 3 7 p q x 2.N ; = ; ; h.&.: ; h C : 0 = : q M C M C M D ] F Z Z -.<.<.' ] F ' [ } } } } [ I U B U U F N 0 r k C ; o ",
"U J B ..[ ( p k 0 3 r N ` h ; = = h : = o ; : ; ; M C M M F ' ] } <.} ] ] } } <.} ' F ' X.} ;.>.+.X.[ U I ] 3.4.{ 7 = - : h ; % ",
"Y I B I ) B A ` A N N N A w : = ; : : : : M C Z F F F F ' Z { +.+.[ O...O.X.} } ] U ;.3.3.3.y.i.x.X.O.+.2.>.2.} A 3 - % o % % + ",
"X.X.I B u q N A A { ' B N N F Z F 2.-.,.4.-.,.;.,.,.,.,.>.2.X.>.>.0.@.@.X.X.X.X.;.w.a.a.i.y.2.O./ I A B { &.( = = ; - : ; 7 : ; ",
"q.:.I B A A ( U ;.4.2.,.,.:.4.4.i.V.V.V.C.V.V.V.V.a.i.w.X.X.X.y.a.a.a.i.y.>.;.w.G.a.u.@.) u i z i q A ` A x k r 0 0 e 0 q w q 7 ",
"[ I ( ( ' } [ [ ;.,.V.V.V.V.J.C.C.J.C.C.V.C.i.i.a.a.i.a.y.u.a.a.v.H.v.H.V.w.i.x.u.[ a 1 e x v L / A / / A p B A ( Z q e p B ' A ",
"u a B U Y } :.:.:.3.i.w.4.V.B.V.V.C.C.w.q.q.>.o.X.>.0.,.u.0.0.0.X.u.w.i.4.w.i.3.I a / B A / ( ..O.=.+.) U ( ....X.@.@.' U B B B ",
"5 a B Y X.;.:.:.,.,.q.w.w.w.w.w.,.,.,.,.>.R [ ..I ..0.v.v.a.a.u.0.y.w.:.B.B.4.[ J L / I / U ) ..| [ ..o.o.X.>.q.q.>.>.3.>.X.[ U ",
"3 t U [ X.:.>.,.,.:.>.>.q.w.q.>.o.>.>.@.>.o.o.o.....t.p.a.u.q.u.u.4.} V H H -./ v L / _ ) ` ..) O.>.>.;.:.>.y.q.0.X.X.X.[ O.[ U ",
"< 4 y u u I I ) [ ..o.@.0.0.>.>.@.@.6.o.o.8.6.8.6.6.6.8.q.i.{.U.OXP.3 D B.1.N @ $ 6 t v *.=.` ` =.3.3.q.,.3.>.+.[ [ { ( ( ` A A ",
"8 , 4 4 4 4 5 t i i a I I I Y o.o.o.o. .0.t.6.6.6.5.8.@.,.V.I.I.@XK.X 2 B.H ;   X & < 4 v J I { 2.3.3.3.q.>.[ A p p B A A A C x ",
"t 9 5 3 7 4 4 3 4 9 t.3.@.` J I | ..O...|  .8.t.=.*.u 2.G.I.I.I.I.<.+ . + + .   d l t v ` } ] { [ ] 3.>.[ ( A i t B v z i 5 i e ",
"5 q q 1 y y 2 2 > i =.A n =.#.< f f l &.J.v.x.P d * b U.}.I.F.D.1.=   .     $ : 6 a ) O.G.U.U.U.K.4.[ B B A B x A a x p 5 3 i v ",
"u } oXP.j.D $.f.2.( w b z A f * s s # G rXtXj.X f $ O S 2.G.G.L.F z * .   2 C.J.a u L { G.U.+X+X9X+XU.} q i x S S A q e 5 / _ _ ",
"p 4.eXtX0XK.n.W.,XOX<.] } 0 % f ; & # . C oXh.6 }.oXm   + O @ 2.V.v.#..   ' }.V.9 > u 2.G.U.W.@X@X@X9XoXA.Z r k 2.K.k.i u ` A _ ",
"q -.G.+X0X0X9X9XK.T.+XOX0X2Xk.D J.G.x.s.6 2 - k.Z.C.J.{ s.d.%.=.z.$.& . . $ 2 + . > +.G.L.L.W.+X@X@XW.I.L.P.&.A P.E.E.A.( a v v ",
"M ,.L.9X0XqXtX,XC k.0XtXtXcXtXoX#X#X$XoX&.* - -.C.C.J.}.|.z.m.v & O . . .       . t @.G.A.L.W.W.W.+XE.I.L.L.2.F L.W.E.L.=.q y 9 "
};
