/* XPM */
static char *_50e95fbbe7342cdc83430d86ab04e9f4xcY7gUPlsz7k7ds[] = {
/* columns rows colors chars-per-pixel */
"64 64 242 2 ",
"   c #060C0F",
".  c #0B0E0D",
"X  c #0D110E",
"o  c #12140E",
"O  c #171C0E",
"+  c #040F11",
"@  c #0B0F11",
"#  c #0C1212",
"$  c #0A1417",
"%  c #121514",
"&  c #151914",
"*  c #1A1C14",
"=  c #131718",
"-  c #151A1A",
";  c #1A1D1B",
":  c #1D2115",
">  c #1D211E",
",  c #232315",
"<  c #282716",
"1  c #2A2B16",
"2  c #22241A",
"3  c #2C2D1A",
"4  c #302E19",
"5  c #33341D",
"6  c #36381D",
"7  c #3C3D1C",
"8  c #181E23",
"9  c #1D2222",
"0  c #1B242B",
"q  c #1B2931",
"w  c #232523",
"e  c #252A2B",
"r  c #282928",
"t  c #322D28",
"y  c #393627",
"u  c #272C32",
"i  c #2D3234",
"p  c #2D343B",
"a  c #373738",
"s  c #413F1A",
"d  c #433B31",
"f  c #3E411E",
"g  c #3A403D",
"h  c #43421D",
"j  c #49491F",
"k  c #444421",
"l  c #4B4B23",
"z  c #494239",
"x  c #564F33",
"c  c #2A3A4A",
"v  c #383C42",
"b  c #3D4349",
"n  c #2E4253",
"m  c #324655",
"M  c #344957",
"N  c #384957",
"B  c #3B4D5B",
"V  c #3E5261",
"C  c #434649",
"Z  c #42464B",
"A  c #494C4D",
"S  c #534E4B",
"D  c #59534A",
"F  c #444B55",
"G  c #4B4E52",
"H  c #4C5154",
"J  c #43515D",
"K  c #4B535B",
"L  c #525455",
"P  c #595956",
"I  c #53555A",
"U  c #565A5D",
"Y  c #5B5B5B",
"T  c #665647",
"R  c #635D59",
"E  c #77634F",
"W  c #66635C",
"Q  c #756A5D",
"!  c #4C5562",
"~  c #485764",
"^  c #4C5B69",
"/  c #555B63",
"(  c #5B5D63",
")  c #545C69",
"_  c #625F64",
"`  c #5B6168",
"'  c #5C636C",
"]  c #526774",
"[  c #586773",
"{  c #636363",
"}  c #64666B",
"|  c #686868",
" . c #6D6C6C",
".. c #726C64",
"X. c #726E6C",
"o. c #706F6F",
"O. c #73716D",
"+. c #7C736A",
"@. c #656A73",
"#. c #666B77",
"$. c #6B6D72",
"%. c #687277",
"&. c #6D717A",
"*. c #737274",
"=. c #797674",
"-. c #7C7974",
";. c #73757B",
":. c #79777A",
">. c #75797D",
",. c #7B7B7C",
"<. c #897156",
"1. c #877A6A",
"2. c #947F68",
"3. c #857C74",
"4. c #837E7B",
"5. c #7F807E",
"6. c #98846B",
"7. c #84827D",
"8. c #8C847A",
"9. c #978876",
"0. c #A8896A",
"q. c #A38D75",
"w. c #A79379",
"e. c #B89978",
"r. c #C29D73",
"t. c #C8A479",
"y. c #6D7981",
"u. c #777B85",
"i. c #7B7D83",
"p. c #827E82",
"a. c #7D8287",
"s. c #848284",
"d. c #8A8584",
"f. c #8C8A85",
"g. c #84858A",
"h. c #89868A",
"j. c #868889",
"k. c #8C8A8C",
"l. c #958C84",
"z. c #938D8D",
"x. c #9B9284",
"c. c #94928C",
"v. c #9C938B",
"b. c #878B92",
"n. c #8D8C92",
"m. c #938E93",
"M. c #8E9195",
"N. c #959294",
"B. c #9A9494",
"V. c #989797",
"C. c #9B9699",
"Z. c #9D999B",
"A. c #A89888",
"S. c #B59E84",
"D. c #A59B96",
"F. c #A39C9C",
"G. c #B09E93",
"H. c #B7A389",
"J. c #BAA58C",
"K. c #ADA193",
"L. c #A6A09D",
"P. c #ACA29C",
"I. c #B3A995",
"U. c #B7A798",
"Y. c #9E9BA2",
"T. c #A49FA2",
"R. c #B19FA2",
"E. c #A5A1A2",
"W. c #ACA5A4",
"Q. c #ACA6A7",
"!. c #AEAAAA",
"~. c #B1A5A2",
"^. c #B3AAA3",
"/. c #BAADA3",
"(. c #B4ADAC",
"). c #B9AEAB",
"_. c #BAB1A7",
"`. c #BDB3AD",
"'. c #B4AFB0",
"]. c #BBB4B3",
"[. c #BAB5B6",
"{. c #C5A888",
"}. c #D4B38B",
"|. c #C3AD93",
" X c #C9B59A",
".X c #D5BA99",
"XX c #E1BB97",
"oX c #C3B5AA",
"OX c #C7B6A8",
"+X c #C8B6AB",
"@X c #D4BDA4",
"#X c #C4BAB4",
"$X c #C5B9B7",
"%X c #CBBDB3",
"&X c #C4BBBB",
"*X c #E7C49A",
"=X c #DCC4A5",
"-X c #D5C3A8",
";X c #DCC4AA",
":X c #CCC1B7",
">X c #CBC1BC",
",X c #D2C2B3",
"<X c #DAC8B7",
"1X c #D4C5BA",
"2X c #DCCBBD",
"3X c #DDD0B4",
"4X c #E4C8A7",
"5X c #E4CBAB",
"6X c #F1CDA2",
"7X c #E4CEB8",
"8X c #E9D4B8",
"9X c #F2DABB",
"0X c #C8BFC1",
"qX c #CDC4C3",
"wX c #CBC5C5",
"eX c #D5CAC5",
"rX c #D5C9C7",
"tX c #DBCCC4",
"yX c #D4CCCB",
"uX c #D9D1C9",
"iX c #DCD1CB",
"pX c #DCD4D3",
"aX c #DAD4D4",
"sX c #E3D2C3",
"dX c #E5D5CA",
"fX c #E9D6CA",
"gX c #EBDAC8",
"hX c #EBD9CF",
"jX c #F2DEC5",
"kX c #E2D6D3",
"lX c #E7DBD4",
"zX c #E5DBDA",
"xX c #F5E2C5",
"cX c #F9E7CA",
"vX c #EAE2DE",
"bX c #F5EAD6",
"nX c #F4E9DB",
"mX c #EBE3E3",
"MX c #F4EAE6",
"NX c #FBF3E9",
"BX c #FCF8F4",
"VX c #FEFDFD",
/* pixels */
").W.G i *.m.4.B.&XpXwXrX$.p.(.&Xp.[.K $.C.'.T.C.v p } C.&XT.8 v v 8 a p _ kXp.Z k. .@ C.0XpX#Xh.p.].).a v v  .B.I Z R.hX0X} 8 0 ",
"D.^.s.{ | F.B.(.(.).&XM.i.kX0X0Xm.p.b.;.n.[.R._ A o.Z 4.pXi.8 u 0 e i _ m.:.p._ A $. .].MX[.=.Z F.wXp.$._ 3.X.3.R.R.R.zX_ v 0 8 ",
"v.).p.Z i.E.B.&XW.m.( v n.'.C.W.Z 8 #.aXpXp.I S T.wXR.*.C.B.Z 0 u 0 v p.p.p.0X:.=.F.rXpXQ.{ h.U X.0Xp.1.3.rXdX0XMXoXv R.R.4.m.b ",
"B.N.| p / g.(.h.C.Z.T.` / b c N.Z F $.0XmXK B.0XaXaXp.'.m.E.$.u u r Z R.0X*.C.yXpX].F._ o.(.| Z :.NX0Xv.oXG.R.mXrXS 0 _ +X/.R.R.",
"R { I U Z _ wXC.( C.yX} / $.p.I *.p.p.'.@.i wXaX0Xu.8 / '.C.i.a u b v '.zX&.N.MX~.*.(. .O.qXg.!.X.'.NXkX0XrXiX0XR._ a I #XF.l.v.",
"X.B.F.s.k.*.T.C._ [.} u.*.p.yXF.b.y.p.W.{ v b.Y.0Xp.i e $.'.yX_ S Y Y d.0X0XR.} A  .[.{ *.wX).'.m.w kXMXhX0X( Z / G 0XR.).zXX.p.",
"p.4.D.T.C.F.m.m.a #.;.p.h.d.yX0XyXyX[.Y.'.i.#.u @.[.;.C.s.C.[.(.| G G *.F.qXi.:.wX&X#XA 4.#Xk.Z._ 9 G p.0Xm.8 v p 0 4.hXkX%XG L ",
"f.d.{ (.m.d.z.T.( I m.rXD.:.T.pXaX&X[.E.Z v ;.[.v m.wX!.B.&X$.s.$.p Z ].zXC.*.iXMXaXF.U &XzX[.!.$.8 u 9 _ p.G 0 / p.Z L iXl.X.C ",
"v.p.m.B.T.T.R.B.Q.C.*.m.wXi.( '.W.F b / F G g.NXM.pX,.j.pXpX$.q } Y ( (.Z.(.zXC.aXyXyX].B.MXmXNXL | #Xd.h.( u b R.qX$X{ &XG.).| ",
"Y } F.W.R.T.$.m.F.,./ @.$Xp.Q.F.[.,.F h.n.C.W.mXQ.L.N.eXpXlX*.8 v P '.iX&Xd.d.L N.aXuXqX*.N.[.:.p.W.F.F.qX!.Z { o.0Xk.4.dX8.$X8.",
"| z.(.z.0X:.} _ p.p.g.*.F.z.i.,.k.E.i i.pXwXqXzXj.{ H Z.wX&X!.I ,.} rXvX0X(.F.qX7.d.Y.W.>Xb | #X#XiX].#X#Xz.D.z.p.D.I _ D.^.&XD.",
"d.F.0Xd.iX,.C.i.F.W.m.T.m.yXp.i !.zXp n.zX).aXzXY E.;.e :.C z.wXB. .wX{ :.NX`.F.k.b L !.aXuX#XW.~.,.{ kX&Xm.F.).#X~.).X.d.F...~.",
"~.iXuXT.T._ ) p.F.&X$.c m.mXF.p.[.vXk.yXE.yXmX>.b !.Z.>.:. .yX[.4.E.kXz.H '.F.(.(.f.R Y 4.wXW 5.].,.a #X#XF.`.8.d.d.{ Y 3.R ^.1X",
"m.d.z.*.) @.@.T.iXiX].} qX&XX.vXvXzX$.E.a.$.E.b I a.].Z.B.M.>XM. .rX^.rXI p ).rXiXL.B.[.Z H 7.Z.A F.).#Xd.].z.=.F.d.Y F.k.R $XdX",
"( v ).&XF / @.p.rX} g.b.&X&X$X!.yXB.F yXyX*.b } zXzX].:.[.uXyX7.'.d.z.kXF.F.c.#XL.,.j.b w ^.rX>X{ { ). .X.z.X.#XD.P.).X. .#XF.z.",
"C.G m.kXp.#.#.Z n.B.i.p.g.!.i._ aXs.p ;.wXb c b Y.yXB.*.L.c.c.O.:.| } L.#X#X| | Y f.Z w G 7./.`.z...^.#X&X~.^.4.^.hX#XR W.~.D 9.",
"rXm.l.tXm.p.R.p.p.MX0X0Xy.p.y.p.MXR.p.R.0Xp.'.} q U ;.yX[.B.vX[.B.| B.P._.7.f.{ e L  .Y z.P.^.#Xf.#XdXdX#Xv.#X_.^.eX:X#X4.L x.7X",
"#XT.R.$X&X~.y.m.R.0XR.p.0X[.R.rXpXp.#.) m.mXzX0XZ.yXL.>Xf. .c.F.Z.{ 1XlXh.O.Z.$.{ 4.X.X.,.kXc.{ d.1XtXtXiXtX2X#X/.#X_.3.4.R oX/.",
"! ' i.z.R.C.y.p.[.&X[.y.p.0X0XmXrX[.'.0Xp.].'.m.E.'.[.L.E.B.rXF.H { dXl.d.P.P L F.&Xf.d.X.f.c.D.F.7.>XuX#X`.~.oX:XeXD.-.D.l.2X^.",
"' c c c B B ) p.'.rXp.'.! '.0X0X0X/ R.zXaX!.p.T.lXL.W.F.s. .lXrX`./.tX+X+X%X^.R 3.U.D.,XP.v.%X<XsX:XoX2X1X_.#X:X/.K.D.P.X.P oXoX",
"c F F n ' [ y.y.y.p.y.aXp._ '.0XyXF.[.wX0X&XyXoXrXpXhXvXP._.#XD.nXtXoX1XhXhXhX2X2X,X2X,X1XfXfXfXsX1X<XdXtX#X1XW.`.iX1X^.A :.1XtX",
"! ) p.y.! ) p.p.p.p.y.R.mX#.y.Q.zXyXp.:.T.~.rXzXrXW.iXuXuXMXvX7.#XvXx.P.v.I.,XsXhXhXsXfX7X%X%X+X2X2XuXiX1X2X1XoXoX,X`.8.:.W l.8.",
"p.p.y.p.) y.! ! u.p.'.p.p.y.^ ^ !.T.0X4.0XB.0XMX!.' E.P.Z.z.vX#X2XfX2X+X_.hX%XbXdX,X<XgXdX<X/.x.:X`.K.2X<X<XtXoX%X%X8.l._.d.1XA.",
"y.p.p.Y.R.p.) p.p.) Y.) B B y.^ ) K N K R.0X:.h.g.J u.'.N.D.1X,XfXtXOXsX:Xc.K.*.P B.oX2X/.%XX._.hXd.,.`.P.2X%XK.2X%X2XgX_.-.1X-.",
"_ 0XrXp.C.C.R.R.' y.u.! ^ ^ J N c J c c :.'.D.kX&XZ.N %.Z.,X2XdXsX7X1XbXi.N @.` a.b.1Xl.:.-.8.tX-.L F.k.d.+XoXoX,Xv.oX<XF. .#XW ",
"$X).p.p.Y.C.'.p.m.y.u.p.y.^ y.N c c c B i.] M ` K ;.' *.`.hXgXdXoX).k.&.K ! ` @.` @.$. .v.W.v._.{ { *.F.fXgXsXU.oXG.dXU.3.^.P.3.",
"p.y.p.p.p.#.u.0XzX'.Y.p.) ! ) y.J c c V V c n n B J ] [ a.>.i.>.` [ K ` [ / / K K ` } i.7.` F >.,.;.@.z.OXOX3XsXfX+XfX<XK.v.O.-.",
"I p.$Xp.p.p.u.p.Y.p.0X'.$.#.) #.~ J V B n n n n m m N m m m M B ^ %.N.b.a.a.a.(.(.z.P.tXh.` ' ( K Z b v G.7XU.x.l.L | ,.=.8.<X/.",
"_ p.u._ p.p.) J F p.i.g.m.u.;.i.i.[ ~ m n n n n m M B M B B ^ u.a.a.;.%.>.j.D.v.].B.x.@XP.:.:.:.X.*.>.>.5.c.gXK.,Xf.H 5.5.<Xv.P ",
"y.i.u.0Xp.p.[ p.p.p.C.u.b.M.$.:.m.n.F m c n n n M B M V ^ [ ` &.y.>.;.a.M.uXaXvXBXBXBXxX#Xs.k.Z.P.W._.j.@.%.C.V.#XL.c.5.,X,X9.L.",
"_ p.p.R.p.R.p.R.Y.T.Q.!.W.F.(.(.~.F.F.g.! B ^ ~ B ~ ^ ^ #.Q.Z.!.a.j.V.j.W.BXBXBXBXVXbXK.8.D.h.D.A.oX+XI.uXx.` @.A H ' | 5.v.f. .",
"_ y.p.R.R.Y.'.0XR.0XC.Y.'.rX#X[.R.$X$X[.n.[ [ ! ` %.y.y.#.b.Z.[.E.rXlXuXC.uXBXBXBXVXNXbX<X-X+X|.@X8X8X<X8XI.x.5.` [ L.:X8.-.P./.",
"' ^ ;.C.E.Z.Z.N.:.V.M.E.M.].>XwX#X#X(.j.;.a.y.a.b.&.>.b.C.b.g.&.b.z.I.2XVXVXVXVXVXVXVXVXVXcXxXcXxX9XxX3X8X8XsXl.L.I.x.2X,XK.U./.",
"m K / K ` ' $.j.V.V.%.V.E.Z.(.>X>X!.(.>X[.Y.%.a.>.!.E.[.Q.B.a.n.$X.X-XpXVXVXVXVXVXVXVXVXBXNXcXcXcXxXxX9X8X;X5X;X7X8X;X;X;X=X=X X",
"F @.@./ ^ ! ~ %.>.;.a.M.V.'.L.Z.`.a.-.oX,Xs.>.V.j.W.V.W.N.`._. X=X3XNXVXVXVXVXVXVXVXVXVXNX9X9X=X=X8X.X|.|.A.|.@X.X4X=X.X.X|.|.|.",
"J ~ ~ J B ~ B ^ [ @.M.E.E.#X>X>XuXrXuXsXgXuXb.5.I.,X-X,XgX8X8X8XbXBXVXVXVXVXVXVXVXBXhX,X@Xe.H.J.q.A.9.6.A.S.A.J. X XS.H.e.H.|.w.",
"M M N B B V B ~ ~ ) j.N.^.3XuX8XjXhXjXgX<X^.I.gXcXcXcXxXxXxXxXjXxXcXbXbXNXNXnXnXlX3X-X|.H.U.6.U.A.7.x.9.A.S.J.6.S.I.w.S.w.1.8.D ",
"m m m N B B M B B B ^ a.E.3X-X3X8X3XgXxXgX9XxXxXxXxXgX8X8X8X4X{.e.H.3X5X7XNXNXNXgXbX7X;X{.@XA.Q 9.Q 6.9.A.9.9.3.8.W W Q O...{ A ",
"m B ) ^ B K ` U %.>.[ @.5.5.I.-X;X3X8XjXxX9X9XxXxX8X9X8X8X8X=X|.A.x./.w././.gX-XK./.3.A.OX+.x...3.W 7.8.+.P P L A A L L A H A A ",
"~ ~ ) ' ;.A.U.A.J.8X3XV.c.gXcXxX8X;XOX X X=X=X3X5X=X=X8X9X Xe.H.+.5.| W 8.7.c.7.-.X. ...3...-. .P P L Y H L A A A H H L L H H I ",
"~ ^ / ^ ] ' *.9.w.I.-X3X8X9XI.I.5X4X8XOXH. X/. X@X5X7X4X-X X|.Q L W { O. .:.7.7.5.O.} | { { W Y U L A L G G G G L P P P L Y R | ",
"8.' ] ] ] ) ] %.M.a.|.=X4X3XK.w..X.X4X5X|.w.K.J. XJ.J.w.1.1.-.{ O. .W 5.O. .*.W H H U Y ` U U U L Y P R ..P Q +.+.6.6.9.q.w.S.e.",
"H.&.[ [ %.] ] ] ] ] 5.I..X3X9X5X5X4X.XXX.Xw.6.1.1.Q 3.1.D H O.7.x.x.5...1...C e e q e g T 6.6.6.w.e.r.e.e.{..X*X.Xr.0.t.t.t.e.T ",
"w.U.I.K.c.v.c.a.5.5.5.5.5.9. X=X4X4X.X4X4X.X{.{.q.1.S 9 = 9 w e d R W 6.W t w e e w w y E 0.e.*X6X*XXXXX}.6.D E Q 0.6.T E y ; ; ",
"t.|.}..X.X.X.X X XA.c.V.a.5.5.5.8.A.e.J.}.|.}.+.t = # = w e w r a y 2 t > > w 9 > : e y z g y 6.0.T t T <.+ + $   e x e   $ @ $ ",
"I.K.e.w.H.H.J.J.I.I.|.w.a.9.c.8.c.5.5.5.8.6.z O 9 i 9 9 e d d d y y d t t w 9 9 > > : w 9 : > e 2 ; = % + $ = $ = $ @ $ $ . $ + ",
"8.6.5.6.8.6.q.6.W t.P f w.6.w.}.*X*X*X6X6XW > > ; d t ; 9 r a d y d z S r w 9 ; > > - - : - - - ; - - - = $ = $ $ $ $ $ $ @ @ $ ",
"w.6.9.q.q.w.q.D f 5.q 1 6.}.t.t.6.r.t.t.t.D $ $ - = 9 y t r y z a t T d t 2 ; ; 9 - > - - - - - = - 9 - = $ $ $ @ @ @ $ @ @ $ $ ",
"q.q.9.9.q.1.x - u t -   S e.6.a r a t 8 y z - # = % ; D r 2 t S 9 - - & t 9 - ; ; - ; ; * ; ; = = $ = $ % @ @ @ $ @ $ @ @ a u ; ",
"Q x z l d t d i i H Z 8 Z =.G v v u q 8 $ @ $ @ # % = = % = = % % - ; = ; > ; ; ; - * ; - ; ; = $ $ # $ @ @ @ $ $ @ # # $ r r r ",
": X $ # & > > a I U L G I ` ! ( ! / ( ! Z = @ # $ $ = = = = - - - ; > > 9 > - - - - - = = & % % = % % $ = % & * & % % % % > ; ; ",
"  % $ O ; > r H ` / L b Z H G G H G I H H u   % = - = % $ - > 9 > 9 9 > 9 - ; - ; & ; - - - - - ; - & & = & = ; % $ % $ % # @ @ ",
"o - % X * w v L L S Z b b v v a p u u e 0 ; $ = ; ; & = ; ; - - - ; = - - - - = - % % $ # # $ # $ # @ X X X o o o o o o o o o o ",
"X X X X o % & & 9 ; & % e b - % @ # @ @   . @ # @ % ; ; = $ # X + $ @ # @ @ # @ @ + # # # % , , , , , , < < < < 4 4 4 < < < < < ",
".   . X . # % = = @ . . & i 9 ; ; 3 = # % $ . . % * 3 t 2 1 : : * : : : 2 2 2 3 3 3 3 , 3 3 , , * < 3 , * ; o & o o o @ o o . . ",
"o O o o * * : , , ; * 2 2 , < 3 1 4 3 1 1 1 1 5 y 6 7 7 s y h y f f k y 7 s y 7 y 6 y 4 1 , : : * , 5 * @ @ @ @ . o . . . . . . ",
"h h h k h s s s 7 7 s 7 s 7 7 h s h h s s h k h f f f f 6 6 5 5 y 5 6 5 5 5 3 3 4 < , , , < < 1 < 2 ; @ @ o @ o o . @ . . . @ . ",
"l x x x l l l l l l l l l l l l l j j j j s 7 7 5 3 1 : : 1 1 1 1 : < : : : > : 2 3 < 2 : : : % o @ @ @ @ @ @ @ @ . . . . . . . ",
"l l s s l l l l l l j h h 7 h k 7 6 1 , < 1 , , : : 3 : % % % o & : % & % o o & . 2 , % & % # # . @ @ o o @ @ o @ @ @ @ . @ . . ",
"6 6 < 4 s h h 4 < 4 1 < 1 , , 1 , 5 4 O O O * O * X X o o + X X X - X # % X # % @ . o % % % X X @ @ o @ @ @ @ @ . o o @ . . . . ",
"1 1 1 1 < , O o O o O o * O o . X o , O : . X o o X X + X X X # X X X X X X X X % . X . X . . o < . . @ o . @ @ . . . . . o @ @ ",
", , , O o . . . . . o . o . o X . . . . % X X X X X % X X X X # X X X . + X   X X X # . . . . o * o * * . . . o @ . . . . . o @ ",
"O O o . o o . . o . o X . . . . . . . . X X . . . X X X X . . X + .   X   X X X . X X X . . . . * o . < o . @ @ @ . . . . . . . ",
". X X X o . o . * o . . o . . . . . . X   . . . .   X X . . + . X X . . X   X X . X . X . . . . o o o o , * @ . . . . . . . . . "
};
