/* XPM */
static char *_7d8854c75db49effc961d06cd514622bNouMi2ki1ffn9WZ[] = {
/* columns rows colors chars-per-pixel */
"64 64 246 2 ",
"   c #1E190E",
".  c #1B1914",
"X  c #1C1D1C",
"o  c #241C0E",
"O  c #241D13",
"+  c #291F12",
"@  c #211E1A",
"#  c #1F211F",
"$  c #262116",
"%  c #2B2215",
"&  c #25221B",
"*  c #2B241A",
"=  c #2C291E",
"-  c #312615",
";  c #362916",
":  c #31271A",
">  c #342A1C",
",  c #3B2D1B",
"<  c #3E311D",
"1  c #171E20",
"2  c #1C2423",
"3  c #1E303F",
"4  c #272826",
"5  c #332C22",
"6  c #372E24",
"7  c #3C3223",
"8  c #3A3329",
"9  c #282C31",
"0  c #2A3337",
"q  c #3B3937",
"w  c #42321E",
"e  c #48351A",
"r  c #433421",
"t  c #473929",
"y  c #513D25",
"u  c #463C34",
"i  c #3E4038",
"p  c #51412C",
"a  c #49433B",
"s  c #4B433B",
"d  c #544739",
"f  c #1C394C",
"g  c #193B55",
"h  c #273847",
"j  c #2C3B4B",
"k  c #353B42",
"l  c #343F4C",
"z  c #263E52",
"x  c #303E52",
"c  c #403D40",
"v  c #1A415D",
"b  c #3A414B",
"n  c #284559",
"m  c #344454",
"M  c #364857",
"N  c #374758",
"B  c #3C4B5B",
"V  c #1E4763",
"C  c #254964",
"Z  c #2C4C64",
"A  c #364E63",
"S  c #295167",
"D  c #2B536B",
"F  c #3C5264",
"G  c #34546A",
"H  c #3B556C",
"J  c #3D5A6D",
"K  c #2D4F72",
"L  c #2C5874",
"P  c #365875",
"I  c #355A74",
"U  c #3C5B73",
"Y  c #3B5D7A",
"T  c #366172",
"R  c #3B617A",
"E  c #3C627D",
"W  c #484647",
"Q  c #564C44",
"!  c #5B5246",
"~  c #434D57",
"^  c #47535A",
"/  c #44515E",
"(  c #585758",
")  c #64594B",
"_  c #655C54",
"`  c #6B6355",
"'  c #726759",
"]  c #414F62",
"[  c #445463",
"{  c #465766",
"}  c #4B5966",
"|  c #435B6D",
" . c #4C5C6B",
".. c #5B5D65",
"X. c #515E6B",
"o. c #435C73",
"O. c #465C74",
"+. c #4C626C",
"@. c #53616D",
"#. c #5A656C",
"$. c #466274",
"%. c #4B6275",
"&. c #43637B",
"*. c #4B657B",
"=. c #46687C",
"-. c #4D697C",
";. c #546473",
":. c #596674",
">. c #546A76",
",. c #5B6A75",
"<. c #52667A",
"1. c #536B7D",
"2. c #5C6C7B",
"3. c #5C727C",
"4. c #716F6E",
"5. c #7B7468",
"6. c #676C76",
"7. c #616E7C",
"8. c #63727D",
"9. c #6C777E",
"0. c #857A69",
"q. c #877E76",
"w. c #918776",
"e. c #A2927B",
"r. c #3B6683",
"t. c #3F708B",
"y. c #456985",
"u. c #4C6A83",
"i. c #546C83",
"p. c #576D84",
"a. c #4C7289",
"s. c #567486",
"d. c #5C7284",
"f. c #55738B",
"g. c #5B758A",
"h. c #4D7792",
"j. c #557B94",
"k. c #587B96",
"l. c #657483",
"z. c #6A7684",
"x. c #697486",
"c. c #657886",
"v. c #6B7A86",
"b. c #637A8C",
"n. c #6C7C8A",
"m. c #747B85",
"M. c #727E8B",
"N. c #657D94",
"B. c #588088",
"V. c #598299",
"C. c #6C818A",
"Z. c #74828D",
"A. c #7C878A",
"S. c #7A848D",
"D. c #678398",
"F. c #758492",
"G. c #7A8693",
"H. c #7D8A94",
"J. c #758999",
"K. c #7D8C9B",
"L. c #7C929D",
"P. c #5787A5",
"I. c #688BA4",
"U. c #7492A9",
"Y. c #7794A9",
"T. c #868989",
"R. c #938F88",
"E. c #9A9388",
"W. c #838C94",
"Q. c #828E9B",
"!. c #898F98",
"~. c #8B9497",
"^. c #85929C",
"/. c #8B949D",
"(. c #969798",
"). c #A59C92",
"_. c #9CA29E",
"`. c #A7A29A",
"'. c #B0A596",
"]. c #8596A6",
"[. c #8B96A2",
"{. c #8D9AA3",
"}. c #939BA4",
"|. c #969AA4",
" X c #939DA9",
".X c #99A2A9",
"XX c #9BA4AB",
"oX c #8EA4B5",
"OX c #97A5B4",
"+X c #9DA9B3",
"@X c #A8A8A9",
"#X c #B4ACA8",
"$X c #AEB0AE",
"%X c #B8B4AB",
"&X c #A3ACB4",
"*X c #A7ADB7",
"=X c #AAB2B9",
"-X c #B7B8BA",
";X c #C5BAAB",
":X c #C4BCB8",
">X c #BAC3BF",
",X c #C6C3BB",
"<X c #D1C5B2",
"1X c #D7CBBB",
"2X c #93B0C3",
"3X c #A9B9C6",
"4X c #B7BCC4",
"5X c #BCC2CA",
"6X c #B4C5D1",
"7X c #C5C7C9",
"8X c #D7CEC7",
"9X c #D8D2CA",
"0X c #C9CCD3",
"qX c #CDD0D0",
"wX c #CCD2D8",
"eX c #D9D7D6",
"rX c #D3D5DC",
"tX c #DBDADC",
"yX c #E6D7C7",
"uX c #F0DDCC",
"iX c #E3DCD9",
"pX c #E7E2D8",
"aX c #F5EADB",
"sX c #F4F0DE",
"dX c #D1D7E2",
"fX c #D6D8E2",
"gX c #DADCE5",
"hX c #DDDFE9",
"jX c #E0DEE1",
"kX c #DEE0E7",
"lX c #DFE0EA",
"zX c #E3E3E4",
"xX c #E4E4EC",
"cX c #E9E7E8",
"vX c #EBEAEE",
"bX c #F3EBE9",
"nX c #F9F4EA",
"mX c #FAF5EC",
"MX c #E6E8F0",
"NX c #EDECF1",
"BX c #F1EEF3",
"VX c #F3F2F4",
"CX c #FAF6F4",
"ZX c #FDFAF5",
"AX c #F9F6F8",
"SX c #FEFCF9",
/* pixels */
"7.:.@.X.X.:.:.7.x.G.Q.Q. XOX4XfXtXtXrXrXdXfXfXfXfXfXfXfXfXfXfXfXfXfXfXfXfXfXgXgXhXhXhXhXxXxXMXMXMXNXMXNXNXNXMXMXhXhXhX5XOX].x.X.",
"l.7.l.:.@.,.2.l.x.M.F.K. X4X0X0XwXrXwXwXrXgXhXhXhXgXfXfXfXgXgXfXgXjXgXgXgXhXhXhXhXxXhXMXMXMXMXMXMXNXMXNXNXNXMXMXhXfX5XOX[.M.x.x.",
"7.l.n.z.2.:.2.l.x.n.J.|.=X3X*X*X4X-X5X0XfXlXkXkXhXhXzXhXhXhXgXkXhXhXhXhXhXhXhXhXhXxXxXMXMXMXMXMXNXNXNXNXNXNXMXxXfX6X3X X*X[.M.[.",
",.l.z.F.M.z.x.l.x.M.G.OX&XXXXX[.|.|.*X7XfXlXlXlXkXkXlXhXkXkXkXkXlXlXlXxXlXxXxXxXxXMXMXMXMXMXMXMXNXNXNXNXNXNXMXxXdX4X3XOXOX*XQ.G.",
"2.2.7.x.M.M.l.x.x.M.M.Q.Q.W.Q.^.!. X*X7XtXhXzXzXxXxXlXxXxXxXxXxXxXxXxXxXMXxXMXMXMXMXMXNXMXNXBXBXNXBXBXBXMXMXdX0XhXdX3X[.K.G.x.X.",
"l.:.2.7.x.n.z.M.x.x.M.J.G.K.^. X X X*X4XtXxXxXxXxXzXcXxXxXxXxXxXxXxXxXcXMXMXxXMXNXMXNXNXBXBXBXBXBXBXBXBXMX0X].Q.3X[.l.:.x. .B j ",
"z.l.x.l.7.x.n.x.n.x.n.M.K.Q.[.XX|.@X$X7XfXzXxXMXcXcXcXxXcXcXxXMXMXcXMXMXMXxXNXNXNXNXNXBXBXBXBXBXBXBXBXMX3X].N.x.X.{ } X.6.:.B l ",
",.l.7.:.:.2.x.F.Q.J.M.M.K.Q.[.|.XX-X4XrXzXxXcXMXMXcXxXxXMXMXMXcXxXNXMXvXMXNXNXNXNXNXBXBXBXBXVXVXhXhXhX0XM.x.x.x.:.;.@.:.x.x.] l ",
":.:.X.;.@.:.2.z.Q.OXOX^.Q.K.^.*X:X7XrXpXxXMXvXvXvXMXMXvXMXvXMXvXNXMXMXNXBXNXNXNXNXVXNXVXBXVXAXfX3X*X].N.n.M.x.N.x.:.p.:.x.l.m l ",
"} } ^ / [ } X.;.x.G. X[.M.J.G./.-XeXgXlXMXvXvXvXvXvXvXvXvXvXNXNXNXNXvXBXNXNXNXVXBXNXVXVXAXAXNXrXOXQ. XQ. X*XQ.M.M.x.n.:.:.:.b j ",
"/ ~ B / { [ } @.,.l.M. X[.K.Q.!.XXqXtXcXvXvXVXvXvXNXvXvXNXvXNXNXBXNXBXBXNXBXVXBXAXVXAXAXAXAXBXgX5X4X&X&XOX X[. X2X|.M.:.2.X.l h ",
"/ B ~ [ } X.X. .2.l.x.[.+X|.!.[.(.4XiXcXvXvXvXNXvXNXNXvXNXNXNXNXBXBXBXBXVXBXNXCXAXAXAXMXrXfXwX4X5X5X@X3X4X*X7X5X5X*XQ.x.X.] l j ",
"} } } / X.:.X.:.l.n.M.G.XX*X[.[.^.(.7XbXNXvXVXNXNXvXNXNXNXNXVXVXBXBXBXAXNXgXgXcXgXcXcXeX4X|.|.wXhX4X4XhXiX7X4X4X!.p.;.:.] ] l h ",
"} } { / [ } X.:.,.n.W.G.Q.*X=X X/.~.|.tXnXVXVXNXVXNXNXVXVXBXNXVXVXVXVXAXvXrXiXeX4X4XeX7XOXM.G.3X5XgXfX0X3XQ.l.l.;.{ F X.] x h 9 ",
"..[ ~ [ / B ~ [ X.7.M.[.[.!.=XXX/.}.~.-XvXVXnXNXNXNXNXVXBXVXVXVXVXCXNXcXzXtX0X4X$XeXcX7X*XG.G.^.!.|.3X[.x.<.;.O.O.] B x B x h h ",
"X.X.} } X. .@.:.z.M.W.J.!.[.-X7XXX~.(.+XeXvXcXvXNXnXNXNXVXVXVXVXBXBXzXqX4XqX4X-XiXeX*X~.[.W.|.Q.Q.x.p.m.x.{ <.O.] ] ] B x x h h ",
"X.;.@.@.:.z.z.n.Z.Z.G.G.F.^.@X7X5X/.W.(.7XzXfXzXBXBXBXVXVXVXVXBXcXbXjXqX:X7XeXiXeX*XZ.(.7X-XG.b.p.p.:.O.M.n.| F F ] F x m B j h ",
"m.@.X.X.;.8.8.z.z.v.Z.H.G.W.|.5X0X-X&X&X,XcXbXBXVXVXCXVXZXVXVXBXzXcXcXpXeX9XqX*X[.Q.[.0X*XF.x.z.i.O. .X.;.G.2.] B N N N N x l h ",
"/.F.m.7.8.v.C.G.Z.v.n.G.H.H.^.[.^./.&X-X-XiXSXAXAXCXCXCXVXVXVXvXtXzXmXCXCX7X^.K.M.p./.=Xz.;.i.;.i.;.O.O.<.] O.] A ] { ] m x l l ",
":.S.Q.!.}.^.Q.Z.z.M.Z.W. X/.F.z.z.H.W.H.!.-XCXZXAXZXCXCXSXZXZXvXbXCXCXCX0XG.C.G.2.<./.[.l.p.<.<.i.:.x.p.;.<.O.{ <.x.p.O.;.{ ] N ",
"/ [ } 2.Z.}.*X XH.Z.Z.Z.M.M.C.F.n.F.K.Q.Q.!.qXCXmXSXCXZXSXAXSXCXSXSXCX6XY.F.L.H.M.v.{.XXn.c.b.l.x.p.l.2.<.O.O.p.N.n.p.x.g.{ N x ",
"@. .[ B m [ @.,.m.H.G.v.z.v.v.m.Q./.W.W.W.W.(.iXnXnXZXZXSXZXZXSXSXZXrX[.d.G.^.W.Q.Z.|.=XG.2.1.<.p.;.O.p.p.x.b.J.].N.x.n.d.<.] ] ",
"G.S.M.>./ { m / } ,.z.v.F.H.G.A./.XX}.|.@X-X7X9XsXnXSXCXZXSXSXSXSXZXmXtX&X5XzX:X@X&X|.*XZ.[  . . .O.A A %.g.i.l.i.u.i.<.p.g.i.i.",
"K.Q.W.Z.8.;.W.m.,.@.6.7.8.m.v.m.m.z.n.T.|.@XqXuXnXmXZXSXZXZXSXZXSXZXZXZXSXZXnXbXaX-X2.@. X X!.M.p.:.6.X.;.O.O.p.l.p.u.O.u.p.i.i.",
"*X{.H.S.Z.9.=X=X~.A.C.^.v.#.3.9.S.m.x.T.#X:X8X,XcXZXZXZXSXSXZXZXZXSXZXmXZXmXmXnXpX!.z.XX7X&XA.Z.z.F.XX|.J.M.K.N.N.u.r.O.O.o.P O.",
"ZXvXzXzXtXeXpXkXtXqX>X$X@X_.@X.X(.(.@X#X:X:X(.$XpXZXZXZXZXSXSXSXZXZXZXZXmXZXZXmXnX9X@X$Xm.8.8.8.z.K.*X&X}.N.N.b.O.O.] P P ] H o.",
"CXZXZXSXSXSXZXZXSXSXZXcXtX8X7X8X:X-XeXbXbXnXaXbXmXZXZXZXSXZXSXZXZXmXVXnXnXsXnXnXZXaX@X/./.H.Q./././.Q.x.i.u.i.p.o.o.o.o.r.O.O.H ",
"eXgXcXvXvXbXbXcXeX$X(.A.9.>.+.F [ { ,.T.@X,XpXZXZXZXZXZXZXZXZXZXZXZXZXmXsXaXsXsXcXyX;X=X8X.X@.F o.G Z K H H P o.H Z n H o.H H ] ",
"J.K.[.^.[.W./.^.c.;.<.%.+.J G A A H U U %.2.H.$XpXZXZXZXZXSXZXZXZXSXSXSXnX7X$X@XQ.M.m.!.7X3X[.f.P K P H r.o.y.u.N.I.].y.] u.u.u.",
"a.i.f.p.g.f.g.g.d.-.1.%.$.$.J J G J U <.3.3.F.Z.T.,XZXSXZXZXZXZXZXBXwX4XoXN.&.&.P K U o.{ <.p.p.f.N.F.Y.].oX3X3X6X3X2XI.k.k.N.g.",
"O.O.*.u.i.-.u.s.1.$.-.-.J F J J U U *.i.c.C.K.^.~.{.7XnXSXZXZXZXpX-XoXI.u.Y K C v v g g g g g C Z Z G G O.p.u.k.V.k.k.I.U.I.N.N.",
"n Z H | o.$.| $.J | $.$.$.$.*.d.s.3.>.d.g.C.L.H.L./.&X>XqXeXnXZXsXpX7X+XN.P Z v v g g g f g g z g v V g g V C V z z x K O.y.r.y.",
"z n M n M | F o.$.$.-.-.s.d.g.l.-.=.$.$.$.-.-.-.s.a.s.J.L.J.&X9XsXnXsX,X_.L.| n x C g x K x x x g g C C C K ] K O.O.O.O.P K K x ",
"M M n M M Z A F J %.d.s.i.1.-.J G S n Z D S S S S L L P t.t.r.V.$X_.A.C.A.d.| B ] F X.X.x.M.x.G.G.!.|.|.|.[.|.[.|.|.OXoXoX].U.K.",
"G A Z A G A J J J J o.%.-.1.| n h n m m n 3 f n n n B H J >.3.S.{.D.-.3.W.|.(.|.@X@X#X-X-X:X#X#X3X*X*X*X*XOX3X2XoXoXoXN.k.N.N.N.",
"J J J $.$.%.%.O.| o.| $.>.1.6.m.~.`.@X`.(.~.R.`.#X%X%X:X,X1XiXyXpXpXpXeX8X:X%X(.(.!.m.m.x.x.x.i.u.O.O.r.r.r.y.j.k.h.h.h.f.h.k.k.",
"=.u.1.-.2.s.d.g.d.b.g.C..X$X%X8XyX8X,X,X$X`.XX~.~.~.(.`.@X%X%X:X,X1XyXuX1X'.T.F.g.f.f.f.u.u.s.u.y.y.u.O.r.r.y.y.y.y.y.y.r.r.r.r.",
"b.N.D.J.Y. XOXOXj.1.Y. X(._.@X%X(.9.1.-.$.T S Z n V n S T >.9.C.m.T.%X<X1X<X@XG.N.f.u.y.y.y.y.&.P O.r.r.K o.o.r.y.r.r.Y P Y Y P ",
"+XoXOXOXY.oX].U.D.j.D.j.V.V.J.}./.f.r.I L L L S S S S S G $.1.s.C.F.~.@X(.Z.g.s.u.y.y.y.y.U R Y P O.P P o.o.r.r.r.Y r.Y Y K K r.",
"Y.I.D.V.V.k.V.j.V.j.h.h.V.I.I.U.Y.U.P.V.h.a.R S S S V V L T =.a.a.a.f.g.f.p.u.u.y.&.U U U I U U P P r.K K K P u.y.Y Y K Y r.Y Y ",
"P.P.P.P.V.V.V.V.V.h.V.V.h.V.V.V.j.h.s.B.a.a.=.R T G T G L J T U R =.=.u.=.=.E T R &.&.U U P K G P H K H O.y.N.].K.N.u.f.p.y.N.U.",
"L t.E E t.t.r.a.V.V.h.h.h.a.s.a.y.u.$.G D S S D L D S S S S D T R L L I T L L D T $.-.i.*.&.*.&.y.O.O.u.f.f.b.N.N.N.N.N.N.k.k.x.",
"f h n n m m f m +.>.1.=.=.J Z S n v n n v v n n m ^ } #.#.3.9.+.+.+.$.=.-.B.A.B.c.v.z.l.8.2.:.%.| | | | A F B x K x x x x x x h ",
"j 0 q q i i b b ~ ~ ^ ^ ~ ~ ~ ^ { ^ #.#.4.w.`.).w.<X9XyXyXyXsX;X~ ,XpX,X;X;X$X_.(.T.9.8.9.8.,.:.X.} X.} } } ] ^ ] ~ c 9 9 9 2 2 ",
"m.9.6.2.%.>.>.#.,.,.6.,.8.9.9.9.A.T.~.R.w.A.w.T.T.w.$X<XyXuXaX9X4.1XsX1X;X'._.~.W.W.A.Z.m.v.8.#...X.:.:...:.X.:.6...] ~ ] ( ] ~ ",
"_ ..9.L.].Y.].].W.W.S.S.A.C.9.3.#.+.#.>.-.>.>.B.C.C.C.A.R.<X1XsX(.,XsX1X<X%X_.~.A.Z.v.z.l.9.l.:. . .X. .} O.X.O.] ] ~ N x x l l ",
"o % = 8 a W ( ( ~ #.#.6.4.A.~..X.X~.H.Z.B.>.$.J T +.>.3.C.A.(.@X`.$XsXsX1X%X_.{.~.H.C.v.l.8.2.:.;.@.{  .} ] { { ] ~ b b b x l l ",
"@ O O .   .     X . . X X 2 0 0 ^ ( #.T._.@X.X$X&X{.A.C.B.B.B.B.3.+.e.9XyX%X.XL.H.Z.C.9.8.2.2.;. . . .} {  . . . .] ] N N ~ x b ",
"* & $ & $ $ & & * * & 4 O X @ X X X . 2 9 q W #.T.%X,XeXpXeXqX5X>X+X_.1XyX%X.XL.F.n.x.x.p.:.:.X.@.}  .{ { { [ |  .} F B B M B M ",
"* % % * O $ * $ . * & * O & * 4 & & 4 & 2 2 X # & 4 q W E.1XsXnXZXSXSXnXsXeX5X@XL.J.n.x.6.:.O.X.{ { [ ] B B m m M m m m b h b b ",
"$ & * * * * * * $ * * % * % * & = & = = = = & 4 = 2 2 4 2 i _ w.).<XyXpXuXsX9XpXqX+X[.K.M.n.x.p.;. .[ [ ] ] ] ] F B B B m m m m ",
"$ % & * = $ $ & % & & 5 5 & @ * $ & & & = = & & & 4 2 2 2 1 2 0 ! 5.w.e.'.'.'.%X:X$X@X!.Q.M.M.M.x.3.2.;. .{ {  .} } { [ [ B B M ",
"% * & $ $ * > % + * * * % % & 4 & & & & & & & & # & # 2 X X 1 2 i ` ` 5.e.).'.).'.%X#X#X(.G.m.x.2.;.,.p.:. . .:.:.:.;.@. .{ ] ] ",
"= % % % * % * > : : : : = : : , , , > 5 5 & = = = = & & & = 4 4 4 ` e.w.0.e.e.e.E.E.e.e.E.T.!.q.6.6.;.} B ] B ~ ] / ] ] A / N N ",
"o % ; , ; , ; < r w w w w r t w w t p t 7 , > 8 8 > 5 = 6 t 8 5 & = d 0.w.' w.0.5.0.0.w.q.q.0.q.q.9.9.4...( b b b b b l l l l k ",
"< < < y p e w < y w , w w y e w w w t , ; , w 7 = % * $ = = = & & 2 $ # 8 u Q _ ( ` ' ' 0.' 0.0.4.5.5.4.4.( ..( W W m W u l W b ",
"e y w ; ; , ; ; , % O + : - - : ; < < w e < < < r > > > , r 7 7 , 8 = 5 $ & 2 q _ ' ) _ 0._ 0.) ' ' _ _ _ _ _ _ _ ( W W c c b c ",
"; ; - + o + , - % w , : O O % + : , ; < < , , ; , > > > : > : 5 5 < 8 > 5 = = $ 6 ) _ _ ) ) ) ) ) ) ) ! Q Q Q Q Q W W s u c u c ",
"+ + % + o o % % - 6 , r - + $ , < 7 < , 6 < * : > 6 5 > : $ % = 5 = % + $ = > 5 . . 5 s ) ) ! Q Q ! Q Q ) Q Q d s s c c u q q u ",
"% % % , , % o % + + + + % * $ : : , , : > = : % : < > : : > 5 % * * = = % * = 5 6 5 @ @ : r d ) ) d Q d d s Q u s s s u c c u k ",
"+ % % ; , ; + + % % + o O - : - ; $ % % ; - < < , , 6 > * % * % % = * 5 > % % % : : : * @ @ @ u d Q Q d d u u d u u u t u u u u ",
"o o o + + o % + + : , % % % , ; % % > + < t t t r * $ $ - > 5 5 5 5 ; 8 > = 4 5 : : * 6 , 6 * O u d 6 t u d d d u u u u t u u t ",
"; ; - + % - - ; + % % % % ; , %   $ % % % * > % % : * % * % * @ O O * + $ $ $ + @ * * + % % * @ O @ + . . 6 t t y u u u u u t t ",
"* + % - % - ; + + % + - : - , - $ % % * % +     $ * 7 < > + % O @ o @ + + o X + + * * * * + : @ * * + @ @ . * 6 6 t 8 r 6 6 6 6 "
};
