/* XPM */
static char *bbc41b6ba90544059b676b9d84a4d3f0qFzjeUN4FtRGCJvz[] = {
/* columns rows colors chars-per-pixel */
"64 64 255 2 ",
"   c #050402",
".  c #0A0502",
"X  c #0C0A04",
"o  c #060709",
"O  c #0C0B0B",
"+  c #130604",
"@  c #130B04",
"#  c #190806",
"$  c #1B0D04",
"%  c #140C0A",
"&  c #1C1105",
"*  c #17120B",
"=  c #0C0D12",
"-  c #191616",
";  c #220D05",
":  c #2A0B03",
">  c #340D07",
",  c #241205",
"<  c #291608",
"1  c #381808",
"2  c #261A18",
"3  c #361C14",
"4  c #2C2117",
"5  c #36271A",
"6  c #3F311A",
"7  c #171921",
"8  c #251D21",
"9  c #1D212B",
"0  c #292629",
"q  c #362727",
"w  c #2B2B35",
"e  c #322D34",
"r  c #333135",
"t  c #383433",
"y  c #383339",
"u  c #461A0A",
"i  c #542C0F",
"p  c #462918",
"a  c #6E3010",
"s  c #472B23",
"d  c #55342B",
"f  c #453737",
"g  c #673828",
"h  c #703B2E",
"j  c #764715",
"k  c #574235",
"l  c #6E4927",
"z  c #6A4337",
"x  c #784738",
"c  c #2D3343",
"v  c #363847",
"b  c #483C43",
"n  c #533E45",
"m  c #47444D",
"M  c #56474D",
"N  c #4B4A56",
"B  c #4C4A54",
"V  c #544D56",
"C  c #57525B",
"Z  c #6D4D4C",
"A  c #7A484A",
"S  c #684D54",
"D  c #774B52",
"F  c #675459",
"G  c #775457",
"H  c #4D4F61",
"J  c #4E5366",
"K  c #545563",
"L  c #5B5B66",
"P  c #565968",
"I  c #5B5D6A",
"U  c #555D73",
"Y  c #655D65",
"T  c #5B6274",
"R  c #596479",
"E  c #64636D",
"W  c #68626A",
"Q  c #796367",
"!  c #686A76",
"~  c #726F77",
"^  c #76747B",
"/  c #88320E",
"(  c #A63B1A",
")  c #C43E0D",
"_  c #924C13",
"`  c #AA4E17",
"'  c #8E5133",
"]  c #AF4B33",
"[  c #A06B27",
"{  c #AD7032",
"}  c #CE510E",
"|  c #F6520E",
" . c #F9580A",
".. c #D26A13",
"X. c #FB650B",
"o. c #E66C14",
"O. c #FB6A17",
"+. c #FB7619",
"@. c #D15238",
"#. c #F75A2D",
"$. c #ED5732",
"%. c #E95639",
"&. c #CF6E2C",
"*. c #FC672C",
"=. c #FC792A",
"-. c #EC6735",
";. c #FA6835",
":. c #FC7537",
">. c #8F4B4D",
",. c #895848",
"<. c #985748",
"1. c #875856",
"2. c #975A55",
"3. c #A7594A",
"4. c #B0534D",
"5. c #906350",
"6. c #9A6759",
"7. c #A8624B",
"8. c #A96856",
"9. c #B56755",
"0. c #B1745A",
"q. c #875F60",
"w. c #866768",
"e. c #916F6B",
"r. c #877678",
"t. c #B1746A",
"y. c #C85747",
"u. c #D15745",
"i. c #CC6A53",
"p. c #EE714F",
"a. c #FC7A45",
"s. c #E26B52",
"d. c #D17A69",
"f. c #7E837C",
"g. c #BC8233",
"h. c #F5940F",
"j. c #FD831B",
"k. c #FE981B",
"l. c #FEA519",
"z. c #FCB718",
"x. c #D49026",
"c. c #FD8624",
"v. c #FD9928",
"b. c #E78F30",
"n. c #FD8736",
"m. c #FC9836",
"M. c #FBA628",
"N. c #FCB628",
"B. c #FDA738",
"V. c #FDB539",
"C. c #FED117",
"Z. c #FEE01C",
"A. c #FDCA2C",
"S. c #FDDA37",
"D. c #FEE530",
"F. c #B98E4F",
"G. c #B48C76",
"H. c #CC8B50",
"J. c #FC8747",
"K. c #FD9946",
"L. c #F0984F",
"P. c #FB8659",
"I. c #FBA546",
"U. c #FDB845",
"Y. c #F5AE50",
"T. c #C68468",
"R. c #CD9077",
"E. c #ED8B6B",
"W. c #FB9666",
"Q. c #FA9876",
"!. c #CDB063",
"~. c #FAA77B",
"^. c #F4B574",
"/. c #FEC547",
"(. c #F9D250",
"). c #FED755",
"_. c #FEE651",
"`. c #DCC360",
"'. c #FCCD70",
"]. c #FDF373",
"[. c #5F6C81",
"{. c #677589",
"}. c #697688",
"|. c #767985",
" X c #7A7B84",
".X c #897D82",
"XX c #7B818A",
"oX c #758899",
"OX c #788898",
"+X c #7D91A4",
"@X c #87868A",
"#X c #95958C",
"$X c #858993",
"%X c #878A95",
"&X c #8C8D94",
"*X c #948D93",
"=X c #8E939B",
"-X c #889498",
";X c #979799",
":X c #93949C",
">X c #AC9694",
",X c #ACA79A",
"<X c #879AA7",
"1X c #8A9CA5",
"2X c #9698A3",
"3X c #959AA3",
"4X c #9A9CA5",
"5X c #8A9FB1",
"6X c #A09BA1",
"7X c #8FA1A6",
"8X c #8EA1AD",
"9X c #99A5A9",
"0X c #94A6B1",
"qX c #96A9B3",
"wX c #9BACB4",
"eX c #99AEB9",
"rX c #9DB1B9",
"tX c #A8A9A5",
"yX c #A2A5AC",
"uX c #A3ACAC",
"iX c #B4ACA5",
"pX c #ABB1AB",
"aX c #B6B3AA",
"sX c #A8ACB2",
"dX c #A7B4B7",
"fX c #ACB4B4",
"gX c #A2B4BB",
"hX c #ABB9BC",
"jX c #B4B9B8",
"kX c #CD9A84",
"lX c #D2AE96",
"zX c #FBA987",
"xX c #F6B68D",
"cX c #E5B29B",
"vX c #C8B8AB",
"bX c #D7BAA7",
"nX c #B5C1BF",
"mX c #F9CE94",
"MX c #FEF48F",
"NX c #CFC6B5",
"BX c #EACAB3",
"VX c #F4D0B0",
"CX c #FEF5AA",
"ZX c #FEFBBB",
"AX c #A6BAC2",
"SX c #B7BCC1",
"DX c #D5D5C8",
"FX c #F1DCC9",
"GX c #DDE3D3",
"HX c #F1EBCC",
"JX c #F8E9D5",
"KX c #FDF3DB",
"LX c #F5EEE8",
"PX c #FEFCEA",
"IX c #FDFBFA",
/* pixels */
"OX+X-X-X1X+X7X7X1X+X+X7X7X+X8X8X8X8X8X8X8X5X<X+XoXOXOX+X+X+X+X+X+X+XoX+XoXoXR R U U ! U U ! ! [.[.}.|.! ! T E E I L L K L L K K ",
"-X-X-X<X+X7X1X+X7X7X+X7X8X8X8X0X5X5X8X0X8X8X5X5X+XoXXX+X+X+X+X+X+X+XoXoXoX[.R U U U U [.U U T U E ! [.R I I I I L P K K K K K L ",
"1X-X7X<X7X8X7X7X7X7X7X7X8X8X8X8X0X0X8X0X0XqXqXqX5XoXoXoXoXoXoXoX+XoX{.{.[.U U U U ! T U U U I P I I E U I I P P P K K K K K L K ",
"-X1X<X7X7X8X8X0X0XqXqXqXqXqXqXqXqXqXqXqXeXrXrXeXqX+X{.[.{.oX{.[.oXoX[.[.U U J J U T U U J J P U U U I L K K H K K K K L K K K L ",
"OX-X-X9X0X0XqX9XqX0X0XqXqXqXqXwXeXeXeXeXeXeXrXAXeX5XoXR R R R XXR R R U J J J J U P P J J J J K P K J P K C K P K Y I I L L E ! ",
"~ ^ @X#X9XwXwXqXqX9XqXqXwXwXwXwXeXrXrXAXAXAXAXAXAXeX7XR T R T T U J J J J H J J K J J N J K L L I P K P P I T R E ! }.{.^ |.|.|.",
"f.f.f.f.@X7XpXuXwXuXwXdXrXrXrXrXgXAXAXAXAXAXAXAXAXeX8XXXT P J J N N N N B B N H K K K U Y ! }.[.}.! {. X|.|.|.|.|. X X|. X$X$X$X",
"#X;X-X-X-X;XrXhXdXrXrXdXhXAXnXhXAXAXAXAXAXAXAXAXeXqX+XoX! K B B m m m m B B B K I ! ~ {..X.X%X X.X%X%X%X%X%X%X.X.X%X%X%X=X%X=X=X",
"7X7XuX7X7XuXpXhXhXhXhXhXhXnXAXnXAXnXAXhXAXAXAXAX0X<XoX{.U N H b m m m m N N V E  X X%X$X=X=X=X=X.X2X2X2X5X5X.X.X%X%X%X2X2X.X5X2X",
",XuXuXpXhXgXhXhXhXhXhXhXgXhXhXAXdXgXgXgXeXeXrXAXeX1X}.! P H N V m N m H C K I ~ $X3X2X=X2X4X4XyXeXyX2X2X.X.X5X.X%X%X%X2X2X2X2X2X",
"uXuXpXwXpXpXpXrXdXnXhXfXuXuX9XuXsXdXwX7X1X1XwXrXeX1X|.[.K C H C V B H N C P ! ^ .X2X4XyXsXsXsXsXeX2X.XeXyXyX6X6X5X2X2X4X4X4X2X2X",
"hXhXhXgXpXwX7XuXdXhXjXhXuX1X7X9XyX9X9X3X-XOX-X1X0X=X|.P V K Y I L L K H N L ~ XX%X2XyXdXSXSXjXsXyXyX2XyXsXAXsXsXSXyXyXyXAXsXyXyX",
"pXnXnXnXnXhXpXpXfXfXfXhXfXuX7X9X9X9X9X9X9X-XoX! |.^ P N n J I W E E L E W ! ^ XX=X2XyXsXdXdXsXyXyXyXyXSXSXSXSXSXSXsXSXSXSXSXyXyX",
"pX7X+X,XwXrXhXnXjXjXfXjXhXpXuXpXpXpXtXtXfXfX-XE P C N m V C W ! ^ ! ! ^ ^ XX$X&X=X=X2X2X4X4X2X4XyXsXsXsXSXSXSXSXsXSXjXsXsXyX2X2X",
"pX,Xf.f.f.f.XX+XtXpXpXhXjXfXfXfXfXfXpXpXfXfX9X.XE K C C L W [.Q ^ ~ f.XXXX@X$X&X%X%X2X2X2X:X:X2XyXSXyXsXsXsXyXiXiXsXsXyXyX6X:X*X",
"pXpX,X,XG.+XG.G.#X;X,XpXuXpXaXfXjXnXnXjXjXpX9X&X.X^ ~ ~ ! .X.X|.! ^ XX|.^ XXXX$X$X%X=X=X:X2X2X=X.X.X2X2X6XyX6XyXyXyX6X6X6X:X:X.X",
"pX,XpXaXaXaXaXaXpXpXiXpXpX,X,XaXnXnXnXjXaXpX9X#X.X.X.X.X.X.X.X[.! ^ XX^ ^ XX@XXX$X=X=X:X2X<X%X:X5X5X2X.X6X2X:X6X6X*X>X6X*X>X.X*X",
",X,X,XpXaXNXnXNXvXNXvXvXNXaX,XaXaXnXaXjXfXtX;X&XyX.XyX.X5X.X.X! E ~ ^ ~ ^ XXXX$X@X:X2X2X%X%X.X5X.XyX2XyX:X:X.X:X6X.X.X>X.X*X.X.X",
"pXpX,X,X,XpXaXaXaXNXNXNXNXlXbXlXbXvXvXaXaXtX;X#X.X.X.X.X.X.X[.T L L E Y ! ! f.@X%X4X2X:X X.X.X.X2X2X2X.X6X*X*X.X.X.X>X.X.X.Xr.r.",
"DXDXDXnXnXNXaXNXNXNXG.6.VXBXVXBXmXBXVXbXbXbXiX,XsX.X.X.X|.[.S S B B B B V I ! ^ @X$X$X|.{.|.|..X.X4X.X2X.X.X.X.X.X.X.X.X.XQ F F ",
"nXNXDXGXGXGXGXGXGXHXe.5.BXFXFXFXFXFXFXVXBXBXbXbXiX>X.X.XQ L S V b b B V B V C E I W E I T W ! |..X.X.X.X.X.X.X.Xr.r..Xr.r.F n M ",
"vXlXbXNXDXCXDXGXLXBX0.G.vXJXJXJXJXFXFXFXFXBXBXbXbXvXcX>X.Xw.Q D Z C F Y F F C C V C C F Y P Y F [.|.r.~ w..Xr.w.w.Q Q W S S n n ",
"R.R.R.lXbXbXNXbXVX>X6.e.t.VXJXJXJXJXFXVXcXcXcXcXlXlXkXkXt..X.X8.w.w.e.w.w.Q Q G S F F F K S S S D F Y Q 1.q.q.q.Q S F S S M n n ",
"d.G.T.G.!.R.lX^.R.e.6.A ,.Q.mXVXVXVXVXcXzXzXzXcXkXd.kXR.R.E.d..Xe.t.e.5.w.w.q.G G G F G S S S S S D D >.1.>.8.e.2.1.D S S M n n ",
"T.0.T.T.T.T.R.~.0.6.5.7.7.i.~.~.~.zXzXzX~.Q.Q.E.p.E.d.d.d.d.d.d.d.t.8.6.6.6.2.2.>.1.D 1.D D D D Z D >.1.2.8.9.9.8.2.1.D D S n S ",
"0.0.0.d.d.d.T.T.e.,.,.6.T.H.W.~.zXzXxX~.zXQ.E.E.W.p.p.p.p.p.d.p.s.s.i.i.4.4.4.2.4.>.>.q.>.D >.D D D >.2.3.4.i.i.y.9.2.q.G G S Z ",
"9.0.9.9.9.0.9.0.6.G x ,.E.E.d.zXxXzXzXzX~.Q.Q.W.P.a.W.P.a.P.p.P.P.p.p.s.u.y.4.4.4.>.>.>.>.D >.D >.>.2.<.4.4.y.i.i.y.9.3.1.G D D ",
"7.8.9.9.9.9.9.7.A h h t.d.' @.Q.zX~.Q.W.W.Q.Q.Q.Q.W.W.Q.W.P.W.P.P.P.P.p.%.%.u.u.y.4.4.4.>.4.>.>.>.>.4.4.4.y.y.i.s.s.y.9.2.G D D ",
"<.7.3.7.7.7.7.' l ,.>.>.h a { P.P.P.p.a.J.a.P.Q.zXQ.Q.W.W.P.P.P.p.a.a.a.%.;.%.%.#.%.%.%.@.@.@.@.u.u.u.u.@.@.y.u.u.s.u.u.4.1.D D ",
"2.5.7.3.7.9.<.h <.9.4.d g 7.] -.a.:.:.;.a.a.a.W.zXzXzXW.P.J.P.a.a.p.p.a.p.%.;.;.#.*.#.;.#.$.$.$.$.%.-.-.-.$.@.-.%.%.s.u.y.>.A A ",
"2.5.5.5.7.0.x x 3.i.' p 4.p.] @.:.;.:.a.a.a.a.J.W.zXzXW.J.J.J.J.P.a.:.:.:.;.;.a.:.*.=.*.*.*.*.;.*.*.*.*.;.*.#.$.%.%.%.%.y.>.A A ",
"A 5.,.5.7.,.l ,.' >.p g i.d.3.] p.;.:.a.a.a.a.J.a.K.I.K.K.K.m.m.m.m.m.n.n.n.:.:.=.=.=.=.*.=.+.c.j.c.j.c.=.=.*.*.#.$.#.$.%.y.>.>.",
"6.2.,.' >.h x >.<.,.p p ] d.y.a @.;.:.a.J.J.J.J.K.I.I.U./.V.U.U.I.B.B.B.m.m.B.m.B.m.B.m.B.v.c.o.) / } j.j.c.=.=.=.=.*.*.*.$.y.] ",
"G.5.1.,.,.g x x >.z s 3 >.y.u.g ] s.-.;.a.J.J.K.K.Y./.)._._._.).(./.U.V.V.B.V.U.U.V.U.U.V.V...>   o ; / ..j.n.n.n.=.:.*.*.;.$.%.",
"G.,.<.,.x z z g s d s q g ' / z ,.3.] $.;.:.;.a.m.K.I./.).)._._._.).(./.V.B.B.B.B.N.V.V.A.V.a   o = + % > } M.m.n.c.:.:.*.;.#.#.",
"T.R.,.x z z Z d s q 0 0 8 3 s f d A h ] @.$.#.#.:.n.K.U./.(.).).).Y.U.I.M.v.c.v.m.M.V.N.N.M.a   O # # - < } C.N.v.c.c.:.*.;.#.#.",
"0.{ G.' g d d d q 7 - 7 - - 2 q 2 s x h ( ] %.#.;.:.n.n.m.I.I.V.M.M.M.k.v.k.h.l.l.l.N.z.z.h./ , $ # ; # 3 o.Z.D.A.l.c.=.*.*.*.*.",
"0.l ,.T.s 5 0 q 2 = = - 2 r f q s G.,X^ C h ] @.#.*.:.=.:.c.c.c.k.l.l.z.z.A.C.Z.D.S._.).A.j.` u > # : u / h.C.D.D.C.v.j.:.*.#.*.",
"9.x p 8.5.4 4 k 5._ s 2 - q f s e.lX>X#X;X#Xq.' @.@.#.#.O.+.j.m.B.U.mXMXMX'./.A.S.A.A.A.V.` l a u . # > a o.C.Z.Z.C.h.j.*.*.*.#.",
"{ h d x <.* d l j 0.0.7.' z f f k k s ,.R.lXlX>X0.0.&.a.xXmXmXFXVXKXIXIXLXKXxXp.s.J.I.B.+.a u a :   o % u o.A.(.A.C.z.h.+.+.=.O.",
"d d k d ' ; p s 5 i l ' ' s - 8 , ; h ^.xXmXVXZXHXHXNXBXGXFXJXLXLXJXKXKXKXKXVXmXcXHXKXKXFXcXH.` : o   : [ MXCXZXCX]._.(.C.z.z.N.",
"d < 2 - d i g - - 8 5 s s p ' i g 0.'.^.b.I.^.xXmXVXVXmXxXQ.J.J.P.J.J.n.:.:.:.P.P.W.~.xXmXmX^.[ + . o i b.'.MXCXZXZXHXCX].V.M.V.",
"- o o   2 ' h < O * = = 3 [ { ' &.m.b...} | O.O.o.+.+.+.+.+.X.X.X.O.O.X. . . . .|  . . .|  .o...q   ; @.:.=.c.B.Y.'.'.'.'.Y.m.J.",
"o o X o . x h 2 O = = 4 l g 0 5 _ ` _ ) ) ) } }  . .X.X.X.X.O.+.+.+.+.+.+.O.O.o.O.O.O.X.O.O.O.+.] # a =.+.=.=.=.+.j.j.c.n.n.m.n.",
"X o o O o p g % O o O 4 < o 2 2 < u j j ` b.L.L.Y.Y.I.Y.B.M.v.M.v.M.M.k.k.l.N.M.N.B.N.N.M.M.N.M.B.a ` k.j.c.c.c.+.j.c.c.c.v.v.v.",
"O . o O O - - o o * * O o % 2 - - 9 4 j Y.`.!.g.'.HXZXCXZXZXHXHXZXZXZXMX].MX].MX].].]._._.S.D.D.(.` b.N.N.M.V.U.B.B.M.v.B.M.B.B.",
"o o o X - * @ % p g < X o O 5 4 - o 6 g.l < , & i !.ZXZXHXKXPXPXPXPXPXZXCXCXMXMXCXCXMX].S.z.S._.(.` U.S.S.S.A.).&.' ..n.v.v.:.:.",
"  X   o % 1 [ [ j l a p 1 a ' i 3 i [ <     X X   < [ H.mXPXIXIXIXIXIXHXMX].].(.F.mXCX(.i u j x.).x.A.Z.(.S.D.&.8 7 i O.v.o.i 3 ",
"      o   d [ a 1 , u i i j i j g.g.i   X X X @ * & 1 a ..CXIXPXPXPXKX'.N.'.MXj   1 l p o =   # [ v.h.A.Z.Z.z.3 - - i  .j./ o = ",
"          < 1 $ @ < & @ . @ + a b._   X X X X * & & 1 i _ &.!.F.g.g.{ _ / [ H.l * X   . # % #   # a u j x.x.i   7 - i } X.a o = ",
"          * * X X @ @   . . o . 1 @ . X X X @ $ $ & , , ; ; : > , , ; < 1 3 u g p + + + + X + + X . @ @ & , . X o * 1 a / u O = ",
"      o   . * X   X X .       .   . . X X @ $ & , , , , ; ; , , ; & , , < < < 1 u > # # + + + + % $ $ , & * % X . X * X & @ X X ",
"            X   . + .       . . X X . + . @ @ & , , < < , , , , , , , ; < < > 1 1 < ; ; # + + + + + X % % $ @ .   X * X X       ",
"  o   o         . . . .   . . . . . . . . @ @ $ , , , & , & $ & $ & ; , < ; ; ; & $ # # # $ + # # $ $ $ $ @ @ @ X X * X X   X   ",
"        o   X   . .     .   . . . . . . . @ @ @ & & & & & & @ @ $ + % % # X O + # @ + + @ + . + . # # & & & $ & * * * * X X X X ",
"              X     .   . . . . . . . . + . @ + @ $ $ @ & & $ @ @ $ 2 8 8 8 8 2 2 2 2 2 2 2 2 2 2 * 8 8 4 q 4 2 * & * * X X X o ",
"    o   o       .   .     . . . . . @ . . . . + @ @ @ X X & @ X @ @ 0 f r y v y t b t f t t t f f - 0 w v m N v * X X           ",
"    .   .         .   . . . . . . . . . . . . . . . X . X X X X @ . 8 y y b m m V B r 0 t C V m B 7 w w c v v c *   X X       X ",
"      .           . . . . . . . . .         .         . . . X . X X 0 e e y m m B v -   X b C B B - w w c v v v - X X X       X ",
"o     o   .         o     .   .   .                       . .   . . 2 0 w e b b B m O O X 4 B m B 7 w c w c c v 7 X X X         ",
"        .           X .                                           X 2 8 0 0 e w c r = - * 7 y 0 r - w w c c v v 7 X X           ",
"    X o X     o     o               . .                           2 w 0 w e y y r r r 0 0 0 w 0 - * 9 w 9 9 0 w 9 X             ",
"      X o           .   . .   + @ . 4 6 4 @ 2 2 , * & % & * & X q F e r e y e r r r t c t r r r 9 - 9 0 9 7 - - * X X X X o   X ",
"        X               . @ @ 2 & . d k < @ 6 5 5 4 4 5 4 5 & 4 p t 0 w 0 w w e 0 r t r r r t t 0 = * - * * * * O * * = * * O O "
};
