/* XPM */
static char *_0d5ad4d8304495cbe997914a61a0ee6B4bgC2C48LaMrr2Z[] = {
/* columns rows colors chars-per-pixel */
"64 64 231 2 ",
"   c #0C0C15",
".  c #15151A",
"X  c #251915",
"o  c #2B1A13",
"O  c #321D16",
"+  c #25251C",
"@  c #29251D",
"#  c #37241D",
"$  c #161528",
"%  c #292823",
"&  c #2A2B23",
"*  c #24252C",
"=  c #362B26",
"-  c #34342C",
";  c #38362B",
":  c #3A332C",
">  c #2A2B34",
",  c #272638",
"<  c #302F30",
"1  c #393536",
"2  c #3C3B33",
"3  c #432C25",
"4  c #46342C",
"5  c #51362D",
"6  c #433B33",
"7  c #473B36",
"8  c #553C34",
"9  c #3F4138",
"0  c #43443B",
"q  c #47443A",
"w  c #4A4A3D",
"e  c #54423C",
"r  c #5C433B",
"t  c #5A453B",
"y  c #63473F",
"u  c #211E4E",
"i  c #262445",
"p  c #3F3F41",
"a  c #393847",
"s  c #2C2954",
"d  c #413F42",
"f  c #463C48",
"g  c #3F4147",
"h  c #434244",
"j  c #4A4642",
"k  c #4B4C43",
"l  c #464649",
"z  c #494649",
"x  c #47484A",
"c  c #494A4C",
"v  c #554A46",
"b  c #5C4A44",
"n  c #4E5146",
"m  c #4E514A",
"M  c #525246",
"N  c #53554A",
"B  c #5A574D",
"V  c #56594D",
"C  c #4F4E52",
"Z  c #575756",
"A  c #5C5D53",
"S  c #624B43",
"D  c #684D46",
"F  c #64534B",
"G  c #6D544C",
"H  c #675A4B",
"J  c #71554C",
"K  c #665B55",
"L  c #6B5B54",
"P  c #745C53",
"I  c #765D56",
"U  c #5D6156",
"Y  c #5D625B",
"T  c #62655C",
"R  c #68675A",
"E  c #64685F",
"W  c #776B53",
"Q  c #74635B",
"!  c #7B655D",
"~  c #766858",
"^  c #5D5D61",
"/  c #626463",
"(  c #666A62",
")  c #696D64",
"_  c #67676A",
"`  c #6C6D6B",
"'  c #746961",
"]  c #7D6A62",
"[  c #6D7167",
"{  c #6E726A",
"}  c #787567",
"|  c #72756C",
" . c #74796E",
".. c #6E6E71",
"X. c #757A71",
"o. c #7A7D73",
"O. c #777979",
"+. c #82655D",
"@. c #84785E",
"#. c #836B63",
"$. c #886D67",
"%. c #857265",
"&. c #877C66",
"*. c #85746B",
"=. c #8B736B",
"-. c #8C7A6D",
";. c #92766D",
":. c #8D7B72",
">. c #887B74",
",. c #937D73",
"<. c #967D77",
"1. c #7D8175",
"2. c #7E827A",
"3. c #8B826B",
"4. c #98876B",
"5. c #898677",
"6. c #82857A",
"7. c #858A7E",
"8. c #958175",
"9. c #968977",
"0. c #9A857B",
"q. c #9E8A7E",
"w. c #9C9376",
"e. c #A18A79",
"r. c #A69A79",
"t. c #AFA37E",
"y. c #7B7E81",
"u. c #7C8284",
"i. c #828483",
"p. c #858987",
"a. c #8A8D83",
"s. c #8B8D8B",
"d. c #9A8A82",
"f. c #8D9285",
"g. c #8E938A",
"h. c #979385",
"j. c #91958A",
"k. c #959A8D",
"l. c #8A8E90",
"z. c #8D9394",
"x. c #939594",
"c. c #9B9795",
"v. c #959993",
"b. c #9A9D94",
"n. c #92959A",
"m. c #95969A",
"M. c #96979B",
"N. c #97989C",
"B. c #96999C",
"V. c #999A9D",
"C. c #999A9E",
"Z. c #A38D83",
"A. c #A48B85",
"S. c #A59285",
"D. c #A79588",
"F. c #AB948C",
"G. c #AC998D",
"H. c #B1968D",
"J. c #A89B94",
"K. c #B39B93",
"L. c #BA9D96",
"P. c #9CA194",
"I. c #9DA19D",
"U. c #B7A986",
"Y. c #B1A88B",
"T. c #A2A49C",
"R. c #A7A99C",
"E. c #B8A598",
"W. c #9B9DA1",
"Q. c #9CA3A3",
"!. c #A2A6A4",
"~. c #A5AAA5",
"^. c #A7AAA6",
"/. c #A5AAAB",
"(. c #AAADAB",
"). c #BBACA4",
"_. c #ADB1A6",
"`. c #ACB1AD",
"'. c #B7B5A9",
"]. c #B3B4AC",
"[. c #A8AEB1",
"{. c #ADB2B3",
"}. c #AFB5B8",
"|. c #B2B5B3",
" X c #B4B6B6",
".X c #B5B9B5",
"XX c #BABDB6",
"oX c #B4BBBC",
"OX c #BABEBB",
"+X c #C4B58D",
"@X c #CBBB94",
"#X c #C8B6AB",
"$X c #CAB8AC",
"%X c #BCC1B7",
"&X c #BDC1BC",
"*X c #CFC097",
"=X c #D2C39A",
"-X c #DCCDA2",
";X c #C5C5BB",
":X c #D6C3B9",
">X c #ADB7C0",
",X c #B6BDC1",
"<X c #BDC3C4",
"1X c #BEC5CA",
"2X c #C2C7C5",
"3X c #C5CAC5",
"4X c #C5C9C7",
"5X c #C5CACC",
"6X c #CACECB",
"7X c #D5CFC6",
"8X c #CDD2CC",
"9X c #C8CED1",
"0X c #CCD2D4",
"qX c #CED5DA",
"wX c #D2D6D5",
"eX c #D5D8D6",
"rX c #D5DADB",
"tX c #DADDDC",
"yX c #DEE2DE",
"uX c #D9DEE1",
"iX c #DDE2E4",
"pX c #DFE6E8",
"aX c #E2E6E5",
"sX c #E3E7E8",
"dX c #E4E9EB",
"fX c #EAEEEE",
"gX c #EAEEF0",
"hX c #ECF1F3",
"jX c #F2F5F5",
"kX c #F6F9F9",
"lX c #F9FCFD",
/* pixels */
"m.m.m.m.m.m.m.m.m.m.N.m.N.N.N.N.N.W.x.-.4.4.4.r.4.@.W R K V N M w w 0 2 ; - @ @ + 0 V N V N N N m n n n k w w 9 9 9 + + 9 *X-X*X",
"m.m.m.m.m.m.m.m.m.N.m.N.N.N.C.C.C.W.x.-.4.4.4.w.e.@.; # @ & @ @ @ - - - - - - & & 0 A A Y V V V V V m m n n n k w 9 + & 9 t.-X*X",
"m.m.m.m.m.m.m.m.m.N.m.m.N.N.C.C.C.C.m.3.4.4.4.4.e.W + . . @ % : 2 6 0 h 0 9 9 - - w E T U Y U A U V U V V N M n k 0 & & w t.-X*X",
"N.N.m.m.N.m.N.m.N.m.N.N.N.C.C.C.C.W.m.<.4.4.4.e.w.@.6 6 7 0 7 d q k N N m n 0 9 ; M ) ( R R R E T U U U A A V N n n & - q t.-X+X",
"m.N.m.N.m.N.m.N.m.N.N.N.N.C.C.C.C.C.C.5.4.4.4.-.~ H B A Z K K A A A K R Y A N l q V { [ [ [ [ E R R R T T K U A V N ; ; q t.=X*X",
"N.m.N.m.m.N.N.m.N.m.N.N.C.N.N.C.C.C.C.9.4.4.&.b j 2 = > : : j B K T ` ` [ ( A V k V X. .} { } [ [ [ ) R R T T Y U V 9 ; q t.=X*X",
"N.N.N.N.C.N.N.N.N.N.C.C.C.C.C.C.W.C.W.9.4.&.b 7 j : o + X X 1 q d K { | | ) E A m A o.X. .X.| | { [ [ [ ) R ( E U U 9 9 w w.-X*X",
"N.N.N.N.N.N.N.C.N.N.N.C.C.C.C.C.C.W.W.a.%.b = 6 e 2 = = 1 % % : 1 7 B |  .) E U V K 6.6.6.1.1.1. . .| | [ [ ) R E E w ; w t.-X*X",
"N.N.N.N.N.N.C.C.C.N.C.C.C.C.W.C.W.C.W.d.F 7 = = = = = % = % X : : = 7 / [ [ ) T A R 6.6.7.2.1.1.1.1.1.V V 1.1.1.1.U w 9 w w.-X*X",
"N.C.N.N.C.C.C.C.C.C.C.C.C.C.W.C.C.W.W.p.j = % # 4 b S 7 : 7 : 7 q 6 2 v R [ R E A T 6.a.7.2.7.6.1.1.1.1.1.1.V V 1.E n 9 w w.-X*X",
"N.C.W.N.C.N.C.C.C.C.C.C.C.C.C.W.W.W.W.` 7 b b v I $.=.] #.>.' ' L e : 6 w R R T B R 7.a.a.7.f.2.1.1.1.1.1.1.1.1.E 1.9 9 9 w.-X*X",
"C.C.N.N.C.N.N.W.C.W.C.C.C.C.W.C.W.W.z.v b ;.<.<.0.,.<.d.A.F.d.A.,.I S 6 ; U R U A T 7.j.f.f.7.2.1.1.1.1.1.1.V 1.1.E n 9 w w.-X*X",
"C.C.C.C.W.N.W.W.W.W.W.W.W.W.W.W.W.W.y.v ' h.F.F.d.=.,.0.A.A.d.A.,.%.#.H - B R U U V 7.h.f.f.w.f.1.1.1.1.1.1.1.1.1.1.V w n 4.=X+X",
"W.C.C.C.n.n.l.l.s.i.y.O....._ / ^ Z v v =.F.K.F.Z.,.,.<.d.d.F.<.,.:.:.! 7 A R T U V 7.k.j.f.f.7.1.1.2.2.1.1.1.1.1.1.U w n 1.+X+X",
"../ ^ Z Z C C c f l l g d d d h d d d v >.F.K.K.F.0.d.0.A.F.F.F.0.<.:.] e k R A V V 7.k.j.j.f.f.k.2.2.2.1.1.1.1.1.1.V w w 1.+X*X",
"a d d d p p p p p p p p p d d 2 d h 7 v :.F.J.F.A.A.0.Z.A.F.J.L.F.0.:.Q 4 2 V V V V 6.k.k.j.j.f.w.P.2.k.1.1.1.1.1.1.W w n 1.*X@X",
"d d g d h p g d d d p p p d d d h 7 7 Z d.<.P S D J +.;.<.;.;.0.S.0.&.P 4 ; V V V V 1.k.k.k.k.k.u.2.k.2.f.1.1.1.1.1.U w n 1.+X+X",
"d d p d p d d d d d d p d d d d g g d K :.F r f f f I $.#.D 7 5 b ~ ~ H ; = V V V V 1.k.P.k.k.u.P.k.k.k.f.2.f.1.1.1.1.n n 1.*X+X",
"d h p d d d d d p d d d d d d d d 7 d v v L $.] I G ! $.L y 8 v e 4 H P 3 ; V V n n 1.k.k.k.k.k.k.k.1.k.2.f.f.2.f.2.1.n 9 1.+X+X",
"d p h d h d h d d d p d p d d d h K b L ' d.=.' b b S f 7 f D L K e t H ; 4 V V V n 1.P.k.P.k.k.k.P.1.k.f.k.2.f.1.1.1.n n 1.@X+X",
"h 9 h g h g 2 h g 2 d p p g p 7 f ;.$.;.<.A.] F b I Q I j b 8 j b F 6 b 4 q M N n n 1.k.P.k.k.k.k.k.k.f.2.k.2.2.1.1.1.n n 1.U.+X",
"g h g h d h h h h p p p 2 p p d D +.;.A.0.F.<.=.=.<.=.J.L F v 8 e Q P ! t @.' N V n 1.k.P.P.P.k.P.2.k.k.k.f.1.1.2.1.1.V 1.1.U.t.",
"h h h h h h g h h p g p g p f h f $.;.A.H.A.A.d.<.;.H.#X#.I ! I I :.-.=.H @.1.n n 9 Y k.P.P.z.Q.P.P.k.2.2.1.2.1.2.1.1.1.2.1.t.t.",
"h h h h h h h h h h d p h h h h f +.;.0.H.H.A.A.$.<.L.L.<.L $.@.*.:.0.=.M W 1.Y n n 1.k.k.P.u.u.1.1.1.1.1.1.1.1.Y 1.1.1.w.1.t.t.",
"z z z l z z l l h l h h h h h h f K #.;.H.H.L.A.;.<.e.<.;.+.;.;.*.#.,.! y +.! | ( 1.{ u.1.( u.( 1.Y 1.Y Y Y Y Y Y Y ( 1.1.1.P.t.",
"z z z z h z z z l h h z h l h h f v ! $.H.H.H.<.;.;.$.+.y +.;.;.:.$.%.G D +.} X.1.u.1.( ( 1.{ { Y 1.Y 1.1.Y 1.V V 1.Y 1.2.1.t.t.",
"h l l l h x h x h z h z h h h h f z F P A.H.H.<.$.+.r 5 5 +.;.;.;.$.! e P ]  .X.{ { u.( 1.{ { { 1.Y Y Y Y Y Y 1.Y Y ( 1.2.1.w.t.",
"l l l h x h x h z h h h f l h h j f f S ;.A.e.=.y y y y 3 r +.;.=.] S 5 '  .X.X.1.1.( 1.( 1.{ { 1.( 1.Y Y 1.Y V 1.V ( 1.2.1.w.t.",
"l l x l l h h x h z l h h l h h f l v 8 J <.<.D y +.+.y 5 5 y $.! G 5 6 [ X. .X.{ { u.{ ( 1.( 1.Y 1.Y Y 1.Y Y 1.1.Y V 1.2.1.r.t.",
"c z x x x z x x l l h l l z z h h h 7 8 S I +.P $.$.+.J J 5 5 +.P 8 # 8 |  .| X.1.{ ( 1.{ ( 1.( 1.Y Y 1.Y Y 1.Y V V 1.1.2.1.w.w.",
"c c c l c c c c z z l z h l z h l l q 4 8 G J $.<.;.y 5 J J 8 y t = O v  .|  . .( 1.( u.1.( 1.( Y 1.( ( Y 1.Y 1.Y 1.U 1.1.1.1.t.",
"c c c z z c x z l l l l z z z f z z l 8 5 8 8 I <.;.y y +.+.y 5 3 O O K  . . .| 1.{ 1.( 1.{ ( 1.( ( Y 1.V 1.Y Y Y V 1.1.1.1.1.r.",
"c c c z x x x x x x l l h l l l z z h 8 3 4 5 S ! +.G y y 8 3 # O o # T { | |  . .| |  .{ { { { ( ) ( ( ( ( ( ( Y ( ( 1.1.1.1.w.",
"c c c c c c c x x l x l x l l l l x h f 3 3 4 5 y r r 5 3 # O o o o e ) | | | | | X.{ | | { { ) { ( ) ) ( ( ( ( Y ( Y { 1.1.3.w.",
"c c c c c c c x x x l x x l l l x h f b S 3 3 3 4 3 # # # o o o o = ~ | { [ ) | { { { { { { { { [ ( ) ) ( ( ( ( ( ( Y ) 1.1.3.w.",
"c C c c c x c x x x x x c z x x x c _ _ <.S # = O o o o o o X o # F 5._.a.[ ` { { | { { { { ( ` ) [ [ ( ( ( E ( E Y E 1.1.1.3.w.",
"c c c c x c c x x x x x x x l l x i.!.*.S.<.v 4 = = O X X X X # b Q >.[.4X|.p.| { { [ ` { ) ) ` ) ( ( ( ( E E Y Y Y Y {  .X. .w.",
"c C c c c c x c x x x x l l c C O./.y.Z / _ ` u.y./ A 1 X X O r Q ] s.m.].tXtX4XV.2.| ` ) ) ` ( ( ( ( E ( E E Y Y Y Y [  .1.} 4.",
"c c c c c C c x c z x x C ..v.(.OXN.z > > > i a f < , > 4 6 b P } s.$X9X4XtXyXtX}.{.Q.n.O.( ) ( ( ( ( E Y ( Y Y Y E U ) | 1.} 4.",
"c C c c c c c c c z m ( b.OXOX&XI.p.a * * * , , * . . f L K Q o.s.x.OXwXeXtXuXeX5X&X6XrX5XQ.X.( ( _ _ / ( Y Y Y Y U U ( | 1.} 4.",
"C m c c c c c c U u.I.%X.X%X.X.X(.W.g * > * , i     . h | O.s.v.c.k.2X0XeXrXrXuXtXwXuXsXpXiX8XR.{ / ( ( / / / Y U U Y ( 1.{ [ 3.",
"c c c C C c c _ `.4X%X.X`.|..X%X2X(.g * > > , i     $ C s.x.I.C.b._.yXsXsXaXsXfXhXhXfXaXdXpXpXpX{.{ Y ( Y Y Y Y Y Y Y ( [ 1.W 3.",
"c c c c c Z s.0XdXwX%X%XXXXX%X8X4X^.l * > * i u $ . * C s.O.o.>.c.].wXwX2X}.qXqXtXaXeX.X/.1XoX9XqX{.( Y E Y Y Y Y Y U ( 1.[ [ 3.",
"C c c c Z {.pXgXiX1X_.%X4X%X&X%X^.s.l * * * u u u 1 a ^ O.B ' 6.f.2X4X5X0XqXqX5XwXeX8X2X{.Q.1X5X1XdXn.Y Y Y Y Y Y U U E [ 1.R 3.",
"C c c c u.iXiX<X1Xz.f.T.&X`._.`.$X(.h * * * u u s f 1 / p.s.i.f.!.4X,X,XqXaX9X<X4X9X0X2XoX>XqX9X1X1X1X1.Y Y Y Y Y U U ( [ { R 3.",
"c c c Z {.iXtX0X&X/.[.Q.`.%X/.^.<X Xz * * > i s s f 1 / T.V.T.C.<XqX9X9XqXrX9X0XqX5X9X0X0X4X1X1X1X1X1Xu.E Y Y Y Y Y U ( { 1.R 3.",
"c c c n.eXjXjXtX<X/.%XI.`.%X&X%X<X{.z * & > i a a a 1 / _.'._.'.$X0X5X6XeXeX6XwX2X.X4X8X8X3X2X&X%X/.&X`.{ Y Y Y Y Y U E [ [ R 3.",
"c c A qXdXlXkXiX}.%X&Xb._.&X;X&X].!.j & < : > i i > - / R._.R.XX0X9X6X0X6X6XeX8X2X<X&X2X4X_.~.`.[.%X1X~.u.Y Y Y Y Y U R [ 1.R W ",
"c c z.kXlXlXjXaX].^.&XR.T.'.;X'.^.J.l = & = 1 f C v 1 ` '.XX4XtXeXtXrXqXtXuXtXrXeXeXtXeXeX;X`._.{.~.%X~.Q.{ Y Y Y Y / Y { { ( W ",
"c C 2XjXkXjXaX2X.X].6X&X%X;X8X;XXX^.l : b >.F.F.0.:.' / j.C.(.]./.Q.[.[./.!./.Q./.{.{.!.R.~.Q..XQ.Q.I.u.`.l.V m k g 9 9 U ( R W ",
"j ` iXtXjXjX4X.X&XOXOXT.P.I.R.R.C.x.K :.F.G.H.S.<.=.F ^ b.(.l.p.u.N.}.uXiX0X,XoXrXqXqX5X<X/.s.s.~.Q.v.P.{.}.g & & & * - 0 k V W ",
"c x.0XOXjXhXOXI.v.g.&X6X<X4X6XeX(.).E.G.d.8.8.' 8 = 6 >.;X].p.O.}.oX[.iXuXiX1X<XgXjXdX<XiX0XN.C.P.f.1.%XoXrXu.& & & & & 9 w n W ",
"c OXfXdXlXjX<XT.(.^.tXtX%X8XaXrX).E.F.e.0.%.e = 7 ' J.K.K.R.h.l.1X1X1X<X5XuXrX1XiXhXqXz.2X5XC.v.k.7.7.P.Q.0X1Xg & & & & 9 k k W ",
"Z tXfXfXkXjXrX!.!..XtX8Xb.R.7X#XE.S.0.<.! 8 F $.,.D.G.0.:.9.o.n.%X|.`.2XoX5X1X1XhXhXiX}.9X5XW.u.{ f.P.v.~.1XpX2.& & + & 9 l w H ",
"..fXaXjXlXjXsXOX!.eXtX7X).#X$XE.F.e.,.%.%.-.8.&.-.8.:.*.o.p.z. X_.P.&XwX1X/.,XiXhXgXpX5XrX5XN.` m u.v.g.I.0XgX<X9 & + & 9 0 n H ",
"i.jXaXjXlXlXtXJ.h.7XeX;X:X$XE.G.D.e.0.0.0.,.-.-.*.L 7 R !.{.>X9X'.].rXhX9Xp.z.1XpXgXpX1XwXqX~.B x 2.z.l.n.5XpXiX/ + + + 9 9 w H ",
"x.kXlXlXlXlXfXXX6.J.:X:X$XE.G.A.S.q.8.,.,.3.-.F = X = K J.}.>X1X%X4XyXiX&X/./..XiXdXaXOX,X4Xa.w w | O._ z.1XdXgXz.& + * 9 9 g [ ",
"|.jXfXlXlXfXaXwX$X$X$X#X+XH.A.e.q.q.8.8.8.$.y e F ] :.9.8.[.1XQ.P.&X%X<X&XP.rXpXsXiXrX,XoX|.a.T A { O.o.u.n.1X1X%Xg + + 9 V 1.w.",
"4XfXfXjXtX4X;X#X$X$X#XE.G.S.q.d.0.8.8.8.8.,.8.8.,.,.8.0.x.1X1X/.I.<X4X{.8X0XiXrX9XrXrX0XqX Xv. .|  .k..XQ.n.u.Q.<X2.+ * 9 U U A ",
"iXiXuXtX6XeX;XE.E.E.K.G.S.q.8.<.,.8.-.,.,.8.,.%.%.=.>.].5X9X1X}.Q.Q./.{.rXpXeX}.(.}.qX<X6X XN.R T T ( g.oXrX<XQ.N.z.9 + & 9 w w ",
"iXiX9X0X7X#XE.E.G.G.D.S.e.0.8.8.8.8.0.8.8.3.%.! ! ~ 5.|.z.l.Q.[.{.N.`.1XwXiX0X{.oX[.<XoX9X4Xf.B ' K A 1.[.oXiX1XI.a.q + ; 9 w R ",
"0X0X0X0X'.G.Y.G.r.h.q.q.0.8.8.:.,.8.8.,.-.! P ~ %.>.s.y.O.y.u.n.Q./.~.{.8XtX0X X X~.Q.W.Q.x.w w ) R m | Q.{.qX1Xl.0 + + ; 9 w W ",
".X^.[..XS.D.G.D.Z.q.q.q.8.,.-.-.&.:.-.-.-.*.:.h.c.l.u.y.p.p.u.N.[./.v.~.[.,X5XoXI.b.n.n.l.6.q 2 b B N 7.T.R.].b.A @ + + ; 0 0 M ",
"Q.R.f.J.D.D.e.e.q.8.0.9.8.-.&.] %.8.8.d.d.h.T.J.v.W.W.n.p.p.Q./.!.z.s.I.}.[. Xv.>.6.s.i.i.X.w q q M K 6.j.G.q.*.W = + + = 9 0 w "
};
