/* XPM */
static char *fe9c9ad73b2f476cfb10621cded325b3Ou5GvOIZYsLrLaRR[] = {
/* columns rows colors chars-per-pixel */
"64 64 256 2 ",
"   c #030901",
".  c #0C0E08",
"X  c #2E0C18",
"o  c #032801",
"O  c #182F0C",
"+  c #2B3211",
"@  c #18032C",
"#  c #090337",
"$  c #190737",
"%  c #17123B",
"&  c #0B0327",
"*  c #280439",
"=  c #370537",
"-  c #2F0B32",
";  c #2E3134",
":  c #480536",
">  c #4A1937",
",  c #59163B",
"<  c #520732",
"1  c #69163A",
"2  c #6A1138",
"3  c #4D3036",
"4  c #68233D",
"5  c #40370E",
"6  c #114C08",
"7  c #0D6A04",
"8  c #2F6E14",
"9  c #324C39",
"0  c #2E6F26",
"q  c #2D4F00",
"w  c #4C4936",
"e  c #4D7133",
"r  c #5E6034",
"t  c #180548",
"y  c #190656",
"u  c #1B1757",
"i  c #131149",
"p  c #260548",
"a  c #370647",
"s  c #251549",
"d  c #38174A",
"f  c #270458",
"g  c #370957",
"h  c #2A1657",
"j  c #371859",
"k  c #192656",
"l  c #38284A",
"z  c #2A2658",
"x  c #3B2C57",
"c  c #373758",
"v  c #2D304D",
"b  c #3A0466",
"n  c #31166D",
"m  c #1A3369",
"M  c #292A68",
"N  c #362765",
"B  c #273768",
"V  c #393767",
"C  c #283A76",
"Z  c #373975",
"A  c #392976",
"S  c #1B0868",
"D  c #470947",
"F  c #560A46",
"G  c #45194A",
"H  c #581748",
"J  c #471958",
"K  c #581956",
"L  c #480C54",
"P  c #671749",
"I  c #691A57",
"U  c #731C58",
"Y  c #6D1546",
"T  c #482448",
"R  c #5A2748",
"E  c #493849",
"W  c #5B374B",
"Q  c #482857",
"!  c #572858",
"~  c #583559",
"^  c #463559",
"/  c #662449",
"(  c #682757",
")  c #75285A",
"_  c #643759",
"`  c #732E4D",
"'  c #4B1070",
"]  c #6B1A66",
"[  c #482866",
"{  c #582966",
"}  c #493867",
"|  c #563767",
" . c #473978",
".. c #583976",
"X. c #4F2877",
"o. c #692767",
"O. c #752864",
"+. c #663869",
"@. c #75346B",
"#. c #663A76",
"$. c #713376",
"%. c #354C53",
"&. c #095A69",
"*. c #155A6C",
"=. c #195977",
"-. c #194A72",
";. c #3A486A",
":. c #27586A",
">. c #284979",
",. c #364778",
"<. c #27587B",
"1. c #36577A",
"2. c #2E5069",
"3. c #07656A",
"4. c #17666C",
"5. c #0D6874",
"6. c #176879",
"7. c #17757A",
"8. c #0C7175",
"9. c #276979",
"0. c #356978",
"q. c #247379",
"w. c #2C6B6D",
"e. c #0E515C",
"r. c #484859",
"t. c #514C51",
"y. c #6A5251",
"u. c #56754B",
"i. c #6B6F4F",
"p. c #484769",
"a. c #564667",
"s. c #484977",
"d. c #594877",
"f. c #465779",
"g. c #575679",
"h. c #4E5569",
"j. c #674768",
"k. c #67487B",
"l. c #6F5074",
"z. c #4D6878",
"x. c #736C72",
"c. c #842C6F",
"v. c #80235A",
"b. c #8B5475",
"n. c #8F7177",
"m. c #348F0E",
"M. c #34AB08",
"N. c #2C9A1C",
"B. c #479114",
"V. c #4AAC14",
"C. c #4F8E32",
"Z. c #50AC2D",
"A. c #60A636",
"S. c #54C823",
"D. c #548C49",
"F. c #719054",
"G. c #748F6D",
"H. c #67A759",
"J. c #8B956F",
"K. c #909962",
"L. c #839E3F",
"P. c #322E83",
"I. c #391385",
"U. c #511A82",
"Y. c #522E8A",
"T. c #6C3293",
"R. c #7630B0",
"E. c #6219A1",
"W. c #2B4985",
"Q. c #384886",
"!. c #2C5C83",
"~. c #285A86",
"^. c #385987",
"/. c #395794",
"(. c #364E92",
"). c #1D6C83",
"_. c #1A6784",
"`. c #1A7485",
"'. c #236385",
"]. c #2A6383",
"[. c #276A89",
"{. c #366687",
"}. c #257588",
"|. c #396795",
" X c #287494",
".X c #2C6D95",
"XX c #3C6BA4",
"oX c #1A5B81",
"OX c #464889",
"+X c #564989",
"@X c #465788",
"#X c #585787",
"$X c #484A94",
"%X c #485797",
"&X c #575796",
"*X c #584596",
"=X c #684986",
"-X c #754887",
";X c #675787",
":X c #785A98",
">X c #6E5291",
",X c #45658A",
"<X c #486897",
"1X c #546E93",
"2X c #67679A",
"3X c #776697",
"4X c #6E6F8C",
"5X c #5254A6",
"6X c #7859A9",
"7X c #6856B5",
"8X c #7956B6",
"9X c #6E4EAA",
"0X c #5169A8",
"qX c #6667A7",
"wX c #7669A5",
"eX c #7374AF",
"rX c #7C39C9",
"tX c #7333CC",
"yX c #6D1ED1",
"uX c #7548C9",
"iX c #7847D4",
"pX c #7354C6",
"aX c #7965CF",
"sX c #8438B1",
"dX c #913C8A",
"fX c #8B5091",
"gX c #8B6F92",
"hX c #8655BA",
"jX c #8951B1",
"kX c #896EB0",
"lX c #AB6FA4",
"zX c #8438CB",
"xX c #8E37D4",
"cX c #8B37E7",
"vX c #9638E9",
"bX c #973AF6",
"nX c #912EED",
"mX c #A337EA",
"MX c #A939F5",
"NX c #B038F6",
"BX c #A138DD",
"VX c #8C4FCC",
"CX c #8A68D0",
"ZX c #9943F9",
"AX c #934BE7",
"SX c #A845F2",
"DX c #9B70DE",
"FX c #7782B1",
"GX c #6C8F8F",
"HX c #3C8884",
"JX c #908D8F",
"KX c #928CAA",
"LX c #A2A2A0",
"PX c #F9FBF9",
"IX c #DDE4D9",
"UX c #B1ABB5",
/* pixels */
"NXnXsXVX*XtXVXR.rXVXR.R.VXsXsXsXVXR.R.jXsXsXsXsXxXE.BXdXsXsXsXsXsXsXsXxXE.VXR.R.sXR.jXR.sXR.R.VXR.R.8XT.8XhXU.9XT.U.9X9XY.uXbXMX",
"NXBXf 8XT.f zXR.f R.T.b jX' ' T.g jXg E.U.' T.b T.L E.L E.' ] E.' dX' sXb T.' U.' g dXp 9Xb U.T.t 8X' b hXf X.9Xf ' 8Xy n CXbXnX",
"NXzX' y hXX.t VXU.f 9Xf T.T.L T.a T.L L $.- dX= o.= I D ] K D I D T.D fX* T.* $.a K +.- fX@ -XJ j 6X$ =XX.y 3Xt p :Xh u DXb yXnX",
"BXBXCXf t kX' g kXL J fX* jXL L $.= b.- $.= o.H I F P F H ( : ) F O.F $.- +.- j.X l.= ! R = >X@ :Xj j fX@ 3Xx @ :X[ % kXV f xXbX",
"BXsX' eXh h jXj g kX@ k.{ a fX$ #.= l.G R K = O.: I : P : ) : I F ! H ! : W - _ @ l.X l.@ l.d l k.& gX@ } ;X& l.^ $ wX;.% wXAXcX",
"NXsXf N kXt s jXs | k.* fXg #.k.= $.D $.= dXX b.= O.: ) : ) : I H o.! ! T Q T T > +.- ~ - l.@ ;X@ d.a.- 2X# a.p.$ 4Xs.i FXN E.ZX",
"mXSXVXt h kXp [ =Xs =X[ j >X$ >Xa #.= T.a $.D o.F o.: O.: O.F I K { o.J ! d Q - | T Q d j.j [ d.% wX& 3Xs i 4X% ;X>X# qX,.t AXZX",
"NXE.*XCXu n wXf  ...t kXg X.T.j -Xp $.{ { K o.D o.I F ] F c.F ] ] ] $.= +.* j.- fX@ k.* :X$ :X@ 3X- p.a.t 2Xi s.#X# FXM i aXrXcX",
"MXvXI.n kXh n kXt ....h jXg >Xg #.Q { G $.G @.D @.F U F P O.< I ] L @.D ! = R T ~ ! d j.^ | ^ ^ d.% 3X& &Xh p.1Xt eXB k eXn E.bX",
"nXnXCXY.u CXn g wX# #X[ [ =Xg 6XJ k.* $.o.K o.F O.F U F Y v.F U ( I O.> W > > ~ = a.G =X* ;X$ ;X% ;X$ d.V M 2Xi wXM m qXu A AXbX",
"SXxXS >X&Xi 9X..h :X@ =XN =XQ [ ..{ { J G -X: @.P K I Y P U F U U I ) > 3 / = _ > Q | | ..- ;Xd l.l l } z eX% 4Xz  .qX# OX7XAXcX",
"BXzXhXp +XeXy >X..z ;X$ :Xa 3Xj d.{ k.a Q o.! $.F I I I I Y U Y O.U ) H > 4 > ~ G ! k.d k.^ a.l r.% g.l 4X% 2Xc p.+X# 2X#Xy R.cX",
"SXsXU.6XZ h eXN +X .x #Xp k.Q k.[ ..[ #.{ J $.K I ] I U U Y U Y O.] I H > > R T ! | #. .d >Xl g.% g.; 3Xk 2Xv V f.% eX,.k qXAXAX",
"SXsXT.M +XOXn 7XA +Xs.z =Xh ..[ ..X...#.J { $.] ] o.] U U U U U c.] H R > > y.T +...{ +X .x ;Xx g.l ;XV @XV f.;.k eXk B eXn R.cX",
"vXrXY.7XZ $XY.P.5XZ OX&XN *Xz d.d.#.#...o.L +.o.O.O.I U U U U U c.O.P H > > W T | k.[ [ ;X} c v ;.#XV f.Z Q.B ,.2Xi qX<Xm qXAXZX",
"vXcXY.M 7X(.P.7XP.&XY.M 9XX. .[ | #.{ ..#.[ ! o.O.U O.U U U U c.fXO.P > > W R E l.! | d.Q d.V f.s.s.#XV @XC ^.OXC 0Xm W.0XS tXcX",
"SXzXY.,.C OXqXC OX%XOXOXY.OX .[ ! { ..+X..| { ! ` ) O.U c.U c.lXfXb.4 < > ! [ ..+._ a.a.} } s.@Xs.f.;.1.Z @X,.,.@X,.<X>.m $XAXcX",
"MXxX*X,.Q.P.Z %XZ C $XY.@XZ +X;X{ | d.[ =X;Xd _ @.( c.c.] c.dXc.KXb.n.> 3 _ [ >X#._ a.a.p.s.s.1.#X2.;.2.,X>.@X^.Q.1XC <.].(.AXtX",
"SXzXY.@X@XC %XC @X@XP.*X,.&XZ Z s.V  .*X .+Xl.G O.c.v.c.c.dXdXlXfXb.y.y.3 _ +.-Xd.d.a.p.s.f.f.h.;.#X2.<X>.%X,.,X@Xm |.!.-.5XtXZX",
"NXzXY.m @X%XC >.>.^.%XQ.OXOXOXOX1.@XM s.+Xs.l.Q I c.c.U sXdXlXb.2 b.y.y.y.R fX#.d.f.h.h.1.f.f.h.f.1.,X-.1X/.,X>.@X^.>.|.>.m iXcX",
"nXAXA B ,.B ^.^.W.>.(.(.%X,.^.@X1.1.;.} } d.k.l.I $.T.sXfXlXfX: X 3 w y.y.;XfXT.+Xf.f.f.f.z.1.f.@X@X].<X|.{.>.^./.^.W.=.~.%XtXZX",
"mXR.*X1.B >.>.W.{.~.>.(.W.|.,.,.0.2.f.#X}  .>X-X$.{ R.hXjXKX_ W X r + x.j.lXk.-X;Xf.0.,X,X,Xf.z.{.,X|.|.~.W.!.|.<.~./.~.~.5XtXZX",
"mXVXY.{.<X<.>.-.-.=.|.W.!.>.|.^.1.1X1.,.#X ...-X>XX.jXjXUX$.y.F.e F.r y.kXgXfX=X;Xg.g.,X<X@X/./.<X|.{.oX|.XX.XoX|./.|.|.oXW.iXcX",
"SXzX+X^.!.|.<X~.oX=.-./.!.].~.{.|.>.<X^.OXg.} l.>X:Xk.KX-Xt.u.C.B.A.K.3 gXkXkXkXg.;X#X@X/.<XXXXX/.|..XXX.X~.'.|.|.[.~.=.|.<XtXZX",
"mXR.OX<.>.<.!.[..X.X~.~.'.<.'.~.~.XX'.~.{.f.s.} 3X3XgXgXh.i.C.C.V.m.H.x.t.lX2XkX6X>X>X&X/.0XXXXXXX.X.X X.X.X.X{.'.]. XoX=.P.uXcX",
"SXrXOX>.<.~.~._.6._..X.X[.].].{.~.~.oX'.|.1.f.g.;X3XKXT @ O 8 m.m.V.Z.JXi.+.KXwXlXfXT.5X0X(.0X5XXX.X.X X.X X X}..X'.=.-.=.W.iXcX",
"bXrXOX>.<.>.oX=._.6.oX'.}. X}.9.|.].~.~.].1.1.1Xx.KX-X@ . o 7 7 7 6 6 0 J.w l.lXjXCX9X8X5X5X0XXX/..X_. X X.X).6.=.=.=.=.oXW.iXcX",
"mXrXOX1.<.=.~._.5._.[.'.=.4.9.{.,X<X1X/.^.{.,X4XgXgX^ ; 6 C.D.Z.C.N.7 7 q r _ lXjXCXCX*XqX5X5XXXXXXX X X X_.).6.}.[.).6.&.W.uXcX",
"SXiX$X1.!.~.'._.`.6.=._.}.}.6.=.9.^.0X%X%X0X1X4XgXE LXJ.u.D.A.A.8 8 0 e C.0 r ) kXCXhX8X8X5X5X0X/.{.).`. X).6.6.*.&.&.&.*.W.iXAX",
"bXrX$X!.!.!._.[.5.`. X}.6.4.9.0.1.>.(.(.%X0XGXKXg.x.i.+ o o 7 q o q 6 o 0 D.L.b.k.kXVXDX7X*X5X%X^.!.'.).`.).7.8.6.)._._._.W.uXcX",
"mXrX$X^.!.~._._.`.`.6.9.q.q.9.9.0.9.<.!.%XqXeX4X; %   t.O     o L.q o +   e e G._ fXDXVXCX*X&Xs.,X{.}.}.}.`.7.7.&.*.&.&.e.m uXAX",
"SXrX5X!.{.[.'.).`.`. X Xq.q.w.4.:.w.<.|.1XFXwXv   O LXIX. +   . L.+         0 C.J.W kXkX6XkX;.1X0.9.q.7.7.4.3.3.3.&.&.&.5.W.uXcX",
"MXrX(.<.oX_._._.7.`._.}.7.7.w.0.,X:.{.eX4XKXp.  ; IXPXUX. y.X . . 5 w + . . . o i.x.y.gXx.3X1X2.0.:.4.7.8.8.8.8.8.8.5.6.6.W.iXnX",
"mXrX$X=.oX_._._._.).).`.q.q.q.0.*.1.4Xh.JXh.%.%.h.PXPXPX. X UXy.b.J.i.J.IX+ o o e K.i.3 JXz.1X0.:.:.4.7.8.`.`.8.8.8.8.5.6.W.iXvX",
"MXVX$X~.[.[. X).}.`.}. X}.q.q.w.0.FXx.JXx.v w.6 o i.IXPXUX5 9 9 r y.K.PXG.6 0 8 8 F.K.w i.4X0X0Xw.%.4.4.4.5.3.3.3.&.3.3.&.C iXcX",
"mXrX$XoX_._._._.).).`.`.7.7.7.w.,Xf.gXn.%.JXD.D.0 6 e L.H.IXLX6 . 3 i.K.0 8 Z.H.A.B.A.F.; gXwXeXz.w.4.w.6.6.8.8.3.3.5.&.&.W.uXbX",
"MXzX$X<.oX_._._.`.`.`.`.7.7.7.q.1Xz.JXw J.F.Z.Z.0 B.8 C.C.0 0 D.6 O 0 8 7 N.Z.M.V.M.V.H.r t.KX3XGXz.w.}.}.}.7.8.7.6.6.6.6.W.iXiX",
"NXzX%X].'. X X[.`.`. X`.7.7.7.HXz.JXy.i.L.B.Z.S.m.7 B.m.Z.7 7 H.C.N.Z.H.N.M.M.M.V.S.M.Z.F.i.x.n.JXz.w.w.{.].6.4.6.4.5.5.6.~.iXbX",
"mXrX$X~._._._._.`._.`.`.8.8.7.w.G.K.i.K.B.Z.M.V.S.V.m.V.Z.V.N.Z.V.S.V.Z.S.M.S.M.V.S.S.V.H.L.r n.z.1.:.w.}.}.}.HX4.4.&.&.&.W.iXiX",
"NXxX%X~.oX_._.oX3.5._.`.7.7.}.0.G.r K.F.C.Z.S.V.V.V.A.B.Z.V.m.Z.B.A.Z.N.S.N.N.S.V.B.V.A.A.r n.r z.1.:.4.=.*.6.6.q.6._.&.&.oXiXbX",
"MXzXOX-.=.oXoX6.6.). X X`.7.`.0.%.x.G.D.u.C.D.D.C.D.F.u.F.e i.u.u.e D.u.D.e u.D.e D.D.e D.F.JXx.%.w.q._.oX_.6.*.=.*.6.*.6.(.uXcX",
"MXzX(.<.~.'.[.[.}.}.).`.`.`.q.1.j.gX9 e.e.9 %.%.9 e r.t.t.y.w r 3 w w w y.4 t.3 w 9 9 9 9 h.3 JX0.{.}.)._._.6.*.=.*.*.*.=.Q.iXZX",
"MXzX$X^.[.[.[.'.[.6._._.`.`.).0.UX4XGXG.HXG.G.x.4X4Xx.x.n.gXb.b.b.b.b.b.gXb.b.n.x.G.G.GXD.GXGXKX,X}._.). X_.6.9.9.*.*.*.*.W.iXvX",
"NXzX$X!.!.'.<.=.6.9..X[.`.7.}.0.z.h.0.HXw.,X4Xp.#X1Xh.g.l.@.` ` ` ) ) ) c.) +.t.h.t.%.z.w.4.0.1.{.0._._.[..X'.'.<.<.<.=.*.P.uXvX",
"NXzXOX>.~.~.!.].<.9.[.[.9.6.9.{.f.w.w.4.9.,X%.h.1.;.s.} +._ ` _ ) U U Y v.) _ W r.h.%.2.0.9.<.<.{.].[.'.'..X~.~.].^.9.<.<.W.iXbX",
"MXtX$X<.~.'.].<.9.9.~.~._.'.{.{.{.0.e.q.1X-.4Xr.h.;.f.r.j.W _ ` U I v.Y ) _ ~ t.c %.h.%.;.{.'.~.1.^.{.].~./.~.~.1.<.!.<.<.W.iXbX",
"mXtX$X!.].!.<.<.<.9.~.~.!.9.^.0.1.*.4.,X%.h.r.%.r.r.p.a.t.R 4 / 1 Y 1 2 / W W E y.; h.p.p.c 1.^.,.1.!.~./.~.!.^.W.<.<.=.oXP.rXbX",
"NXzXQ.-.>.<.!.{.-.<.^.{.{.<.:.1.:.1.1X2.r.h.c g.%.t.r.t.W W 4 ` 1 4 Y 2 4 / W W E a.l a.| a.;.f.@XQ.,.(./.Q.W.^.@XQ.W.~.~.(.iXcX",
"SXrX+X2.1.@X>.-.,X<.@X^.1.2.^.2.,Xf.2.%.#X%.a.r.E j.E j.3 ` 1 4 2 2 2 4 < ` / _ R ~ ~ l k.^ } ;.,.@XOXQ.P./.^.>.%XW.W./.^.P.tXbX",
"mXrXA ,X^.k ,X<X>.<X>.Q.@X2.;.f.;.z.v z.%.^ h.E r.~ W t.3 4 1 ` 1 2 2 Y 2 ` / ( ! Q j.} x g.c V Z OX,.OXQ.%XW.@XQ.P.5XC Q.7XiXZX",
"nXVXqXk >.0XQ.>.,Xm 0XZ ,.,.@Xf.;.%.g.%.c g.; E t.T y.> y.1 1 ` 1 v.2 Y , Y P ( _ ! ~ | } c d.V s.B s.s.@XC @X,.OX@XM @X(.M iXyX",
"NXtXy 0X0Xm eXQ.>.<XZ @X;.f.@X;.%.;.p.v a.r.l t.a.W y.> 4 1 4 Y 2 2 < Y P , ( K o.! G ~ d.s #X} z s.c s.,.@XB ,.OXB 1XC Z 7XiXZX",
"mXVXeXC ,.0Xm ,.1.B &XB @X;.;.;.p.h.c r.p.^ l j.T y.W , / , ` 1 2 v.2 2 1 , / R _ ! T ~ Q } x h.p.z a.V OXZ #X;.Z 2XM ,.&Xn tXcX",
"mXxXA 2X@Xz 2X^.;.,Xz #Xf.p.v ;.p.p.v d.a.; l.~ T j.G R 4 , ` Y 1 v.2 2 P 1 / / , +.! Q Q } x ^ a.d.h s.M +XM f.OXu qXQ.M 7XVXZX",
"NXR.CXu M FXM s.@Xk wXZ f.v g.V s.z #X} x Q ..Q ! +.d ! R H / Y 2 1 2 2 Y , P / H _ ! Q ! Q | l +Xx =Xh +Xh @XZ  .wXu (.0XS iXnX",
"MXxXy &X&Xu &XOXk 2XV &Xi f.z g.z d.^ } d | j.d j.{ > ! ( I P U 2 2 < 2 Y P H K O.H ! +.d #.Q #.d =Xj =Xt 9XN Y.*Xy aXM M DXyXbX",
"NXcX8X&Xt qXOXh eXz &Xh s.s.Z p.x p.| d } | { ~ +.~ G ! ( , ) I v.v.F 2 P Y F ] o.K $.J o.Q { X.| [ ..[ Y.t 2Xs Y.*Xy aXM n AXbX",
"nXvXY.i eXZ M eXi @XA M #Xs d.z g.^ } T ~ +.T j.! G R H R H P ) 2 Y F 2 I F P ] K I L $.o.L #.a k.g =X|  .+Xt kXh  .qXt eX*XyXbX",
"NXxXX.eXN z wXk 4Xc s kX& 3X% l.l a.- ~ l j.> _ ~ = _ > ( H , ) 2 U , < P < I P F @.: l.G #.J | a ;X@ fXj +X[ t :Xj Z 2Xi T.VXnX",
"mXVX6X% ;.kX% ;X;.% gX$ ;Xv ^ p.l a.l a.~ Q +.T _ - ~ > ( R H ( < / P < ) : ) F H ( K ! K ! G +.Q Q =X$ kXp ;XN h >Xs M wXn R.SX",
"NXxXp ;X3X% ;Xs.& 3Xs ..g.$ 4X% 3X$ d.d k.d -XQ ! G G | K o.F @.H / H D ( : _ D @.= $.= fX* -X* =Xp T.[ n qXh >Xh h aXk M 9XvXnX",
"NXsXT.2Xi $X&X# 2XZ h 9X# 3Xt +XN z [ [ ..J X...j { a T.a o.L $.L { D K L L K L X.a $.g #.[ X.' A Y.t 6Xy Y.Y.t 8Xn i aXh n AXnX",
"MXbXuXP.5XpXS 7X$XP.aXI.*X5Xn pXf 6XA 9XX.T.X.T.X.Y.' >X' T.X.T.U.T.o.T.U.U.Y.U.Y.T.Y.E.U.9Xn uXn 8XA Y.pXS pXY.Y.CXS P.CXI.yXbX",
"MXbXiXaXaXpXaXaXpXaXaXiXaXpXDX7XDX*XCXCX8XVXhXjXCXhXVXhXjXDXjXhXVXjXVXVXDXhXDXVXVXiXCXVXCXuXDXiXCXpXCXpXaXCXpX7XCXuXaXDX7XaXbXbX"
};
