/* XPM */
static char *f0f964d0a17c4e979434cccb3eabdbc5oSi5bXo0JX1dpm7z[] = {
/* columns rows colors chars-per-pixel */
"64 64 205 2 ",
"   c #010101",
".  c #0B0002",
"X  c #04000D",
"o  c #0A000A",
"O  c #0C0B0B",
"+  c #0A0907",
"@  c #140000",
"#  c #1B0000",
"$  c #1A0C0D",
"%  c #131108",
"&  c #040013",
"*  c #090013",
"=  c #0F001B",
"-  c #120013",
";  c #180017",
":  c #141312",
">  c #1B1A1B",
",  c #230000",
"<  c #2A0001",
"1  c #330000",
"2  c #3C0003",
"3  c #211E1E",
"4  c #140428",
"5  c #111521",
"6  c #210023",
"7  c #340031",
"8  c #252325",
"9  c #2D2D2D",
"0  c #3C3C3C",
"q  c #343333",
"w  c #28293D",
"e  c #450402",
"r  c #4B0802",
"t  c #54040A",
"y  c #5D0010",
"u  c #71030E",
"i  c #7B0319",
"p  c #771A1C",
"a  c #661A0E",
"s  c #7F331C",
"d  c #423F3F",
"f  c #2B1445",
"g  c #320641",
"h  c #192146",
"j  c #302246",
"k  c #363465",
"l  c #413F40",
"z  c #521F62",
"x  c #4B3469",
"c  c #444444",
"v  c #4C4B4B",
"b  c #4A4646",
"n  c #524E4D",
"m  c #444753",
"M  c #585757",
"N  c #63504C",
"B  c #615D5C",
"V  c #5F6058",
"C  c #48506F",
"Z  c #6D6B6B",
"A  c #656362",
"S  c #706F6D",
"D  c #7A7575",
"F  c #7B7778",
"G  c #7D7879",
"H  c #7A7777",
"J  c #6B677E",
"K  c #8F1019",
"L  c #8D2D1D",
"P  c #A93619",
"I  c #9D1727",
"U  c #972A26",
"Y  c #B42B2A",
"T  c #B33729",
"R  c #B63730",
"E  c #CD3D2D",
"W  c #BF561C",
"Q  c #A05039",
"!  c #AE442C",
"~  c #C34926",
"^  c #D25B2A",
"/  c #D05035",
"(  c #CD5237",
")  c #EA5839",
"_  c #DF732B",
"`  c #CD7122",
"'  c #FE6D3E",
"]  c #ED7536",
"[  c #B0624E",
"{  c #9F5F60",
"}  c #837D7D",
"|  c #E07747",
" . c #DF8B28",
".. c #EE8E28",
"X. c #F39B26",
"o. c #FF953D",
"O. c #FF873C",
"+. c #CEA031",
"@. c #FCA928",
"#. c #FCB828",
"$. c #FFA93D",
"%. c #F3B230",
"&. c #BBF13B",
"*. c #FFCB27",
"=. c #ECDC2F",
"-. c #F4DE27",
";. c #F1D720",
":. c #F7C935",
">. c #F1DB30",
",. c #E7D03D",
"<. c #D8EA3B",
"1. c #CBF235",
"2. c #C4EC3E",
"3. c #E6E82D",
"4. c #E3E738",
"5. c #EF9354",
"6. c #F88745",
"7. c #D3BD50",
"8. c #FCAE4E",
"9. c #F7B060",
"0. c #B0F14F",
"q. c #A0F252",
"w. c #B4E456",
"e. c #8FD379",
"r. c #A9D766",
"t. c #8BEE6F",
"y. c #9AE867",
"u. c #B2EB6F",
"i. c #CFDE5D",
"p. c #DADC57",
"a. c #EFD741",
"s. c #ECD757",
"d. c #C0EF53",
"f. c #CFE650",
"g. c #E3E347",
"h. c #C7CD69",
"j. c #EACE69",
"k. c #CBE375",
"l. c #59538F",
"z. c #6F4F90",
"x. c #6F628D",
"c. c #617BA0",
"v. c #7A70AF",
"b. c #9079B1",
"n. c #8863B3",
"m. c #7E828D",
"M. c #6B9E99",
"N. c #7C91BE",
"B. c #65B5AB",
"V. c #78ABB7",
"C. c #79B1B5",
"Z. c #72BAA2",
"A. c #77C88A",
"S. c #7EC09C",
"D. c #6EC799",
"F. c #7DE390",
"G. c #77CAB2",
"H. c #709DD6",
"J. c #72ABC7",
"K. c #8D8887",
"L. c #858F90",
"P. c #918F90",
"I. c #9A9594",
"U. c #949293",
"Y. c #A59F9E",
"T. c #B09C9D",
"R. c #9EAB80",
"E. c #889FBE",
"W. c #9290AD",
"Q. c #88B1AB",
"!. c #95A4B6",
"~. c #98AFAA",
"^. c #AEAAAA",
"/. c #A8A4A3",
"(. c #B1ADAC",
"). c #B4B0AF",
"_. c #ADABB0",
"`. c #BEBBBA",
"'. c #B8B4B4",
"]. c #A7BBB0",
"[. c #C2BBBB",
"{. c #87C598",
"}. c #8FD58E",
"|. c #AFDC8E",
" X c #88E28B",
".X c #81C9A1",
"XX c #A8CBA3",
"oX c #E0D287",
"OX c #D3E098",
"+X c #E5DEB0",
"@X c #FBC1B3",
"#X c #9D8FC0",
"$X c #9B99CB",
"%X c #859FD2",
"&X c #8991C9",
"*X c #A890CD",
"=X c #8CA2DE",
"-X c #BAB9CB",
";X c #A194E4",
":X c #89A2E4",
">X c #C7C5C2",
",X c #D3CCCC",
"<X c #D8D4D3",
"1X c #E4DEDE",
"2X c #E6E0E0",
/* pixels */
"                                                                                                                                ",
"                                                                                                                                ",
"                                                                                                                                ",
"                                                                                                                                ",
"                                                                                                                                ",
"                                                                                                                                ",
"                                                                                                                                ",
"                                                                                                                                ",
"                                                                                                                                ",
"                                                                                                                                ",
"                                                                                                                                ",
"                                                                                                                                ",
"                                                                                                                                ",
"                                                                                                                                ",
"                                                                                                                                ",
"                                                                                                                                ",
"                                                                                                                                ",
"                                                                                                                                ",
"                                                                                                                                ",
"                                                                                                                                ",
"                                                                                                                                ",
"                                                              O O                                                               ",
"                                                              B M                                                               ",
"                                                          +   '._.  +                                                           ",
"                                                            : <X<X:                                                             ",
"                                                            B I.I.M   +                                                         ",
"                                                            /.b b Y.  +                                                         ",
"                                                          : >X$ : [., @ @ @ . .                                                 ",
"                                                          M I.    T.{ t e 1 , @ +                                               ",
"                                                          `.,X}   N @X[ Q s a e < # # # @ . .                                   ",
"                                                    O q M <XY.^.q % +Xj.h.+.` W P K u t 1 < @ .                                 ",
"                                                O 0 n > n ).  O >   R.OXh.j.j.9.5.| ( ! L a r 1 , # # @ . .                     ",
"                                            : c v 8     Y.A         M >XL.XXXX|.k.p.%.%. .` ~ P K i y 2 < # +                   ",
"                                        > c b 3       O [.3         8 -Xh C M..Xe.r.i.p.s.8.8.6.] / R U p t 1 , # # @ o . o     ",
"                                    3 v c >       +   v ^.  o         ).m X 5 C m.~.].{.|.u.p.,.:.%.X._ ^ ~ T I K y 2 < # .     ",
"                        +       8 v 0 :               P.Z             S P.  - * 4 k c.V.S.}.r.w.f.g.a.:.$.o.| ) / Y U p t 2 < , ",
"                          + 9 v 0 O                 O [.8             8 `..   o X & & j J W.!.~.{. Xw.0.g.>.*.#.@..._ ^ E Y I K ",
"                      O q n q +                     b (.            .   ^.d           o = 7 l.H.C.S.A.e.w.f.<.4.=.:.#.o.O.' ) E ",
"                  O 0 v 9                       +   K.D   . .   .       F K.  +       o + X & 5 C b.!.!.C.{. Xt.0.1.3.;.*.#.@.X.",
"              : l n 8                               <X1X'.[.[.[.[.[.`.'.2X<X                o o - 6 x v.%XJ.B.A.e.y.0.2.<.3.-.;.",
"          > c b 8                                 : Z H G H H G F F F G H Z O                   o o & & j x.#X$X&XC.G.F.t.q.&.1.",
"      3 b c >                                                                                         o o ; g z.&X=XJ.B.D.F.y.q.",
"  8 v l :                                                 . +   +     +                                 o o o * 4 x W.*X$XH.V.G.",
"v 0 O                                                                                                           @ - 6 z n.;X:XH.",
"O                                                                   X                                           o o o * * f z.*X",
"                                                                                                                          o ; 7 ",
"                                                  X             X                                                         o - . ",
"                                                                                                                                ",
"                                                                                                                                ",
"                                                                                                                                ",
"                                                                                                                                ",
"                                                                                                                                ",
"                                                                                                                                ",
"                                                                                                                                ",
"                                                                                                                                ",
"                                                                                                                                ",
"                                                                                                                                ",
"                                                                                                                                ",
"                                                                                                                                ",
"                                                                                                                                ",
"                                                                                                                                ",
"                                                                                                                                ",
"                                                                                                                                ",
"                                                                                                                                "
};
