/* XPM */
static char *ce6c109ae51f4037f1c779ebeba7553ez3rIFyGxfi44WDsl[] = {
/* columns rows colors chars-per-pixel */
"64 64 214 2 ",
"   c #120F0F",
".  c #0E0F11",
"X  c #110F11",
"o  c #0F1013",
"O  c #141315",
"+  c #1A1516",
"@  c #1B1917",
"#  c #161619",
"$  c #1B1619",
"%  c #1C1A1A",
"&  c #211717",
"*  c #201916",
"=  c #221D1C",
"-  c #2A1E1C",
";  c #301F1E",
":  c #24211E",
">  c #2A221E",
",  c #34231E",
"<  c #251F20",
"1  c #262321",
"2  c #2B2523",
"3  c #2E2925",
"4  c #2E2929",
"5  c #312622",
"6  c #3C2722",
"7  c #332A25",
"8  c #3B2D25",
"9  c #332D2A",
"0  c #3A2E2A",
"q  c #36312D",
"w  c #3C322C",
"e  c #382F30",
"r  c #2E3433",
"t  c #3A3632",
"y  c #3D3633",
"u  c #3C3B3A",
"i  c #422D25",
"p  c #492D24",
"a  c #452E28",
"s  c #443027",
"d  c #4C3127",
"f  c #43342C",
"g  c #4B342B",
"h  c #44382E",
"j  c #4A392E",
"k  c #51352C",
"l  c #543A2E",
"z  c #5C3A2C",
"x  c #433631",
"c  c #443B33",
"v  c #4B3C32",
"b  c #423D39",
"n  c #4A3F39",
"m  c #533D33",
"M  c #5A3E33",
"N  c #672F25",
"B  c #6A2E25",
"V  c #66352B",
"C  c #6D332B",
"Z  c #693F2D",
"A  c #72352E",
"S  c #72392D",
"D  c #6C3E32",
"F  c #723730",
"G  c #753B34",
"H  c #7A3E38",
"J  c #4D4036",
"K  c #4C433B",
"L  c #4F483E",
"P  c #534136",
"I  c #5B4136",
"U  c #53443B",
"Y  c #5D443A",
"T  c #55493D",
"R  c #5B4A3D",
"E  c #624435",
"W  c #6B4434",
"Q  c #62463A",
"!  c #6C4639",
"~  c #654A3D",
"^  c #6A4D3D",
"/  c #7D453C",
"(  c #744D3D",
")  c #6C503F",
"_  c #71513F",
"`  c #4D4542",
"'  c #4C4A43",
"]  c #4E4E49",
"[  c #544640",
"{  c #534A42",
"}  c #5B4D43",
"|  c #5C4B44",
" . c #575146",
".. c #5E5045",
"X. c #52504A",
"o. c #5D534A",
"O. c #575651",
"+. c #644C42",
"@. c #6A4E42",
"#. c #674E49",
"$. c #794A41",
"%. c #635145",
"&. c #6D5143",
"*. c #64554B",
"=. c #6B554B",
"-. c #65594D",
";. c #6B5A4E",
":. c #715445",
">. c #7B5345",
",. c #7A5846",
"<. c #71564B",
"1. c #745A4C",
"2. c #7B5B4B",
"3. c #695A53",
"4. c #6B5C51",
"5. c #735953",
"6. c #745C52",
"7. c #7A5E52",
"8. c #7F604D",
"9. c #6C6155",
"0. c #6D6258",
"q. c #6F685C",
"w. c #736255",
"e. c #7C6255",
"r. c #756459",
"t. c #7C655A",
"y. c #75695E",
"u. c #7C695D",
"i. c #736961",
"p. c #7E6C61",
"a. c #766F6A",
"s. c #7E7367",
"d. c #80483D",
"f. c #834C42",
"g. c #825B46",
"h. c #86564A",
"j. c #815C4B",
"k. c #84614E",
"l. c #836455",
"z. c #8C6357",
"x. c #83665A",
"c. c #8C675A",
"v. c #846A5C",
"b. c #8A6B5C",
"n. c #93695D",
"m. c #836660",
"M. c #846D62",
"N. c #896E63",
"B. c #8A6D68",
"V. c #906E60",
"C. c #847165",
"Z. c #8C7265",
"A. c #85746A",
"S. c #8C756A",
"D. c #8E796D",
"F. c #937465",
"G. c #93766A",
"H. c #98756B",
"J. c #937A6D",
"K. c #9A7C6D",
"L. c #847B72",
"P. c #8D7D72",
"I. c #937D72",
"U. c #9B7D73",
"Y. c #9B7F79",
"T. c #A07D72",
"R. c #8D8176",
"E. c #958175",
"W. c #9C8274",
"Q. c #968478",
"!. c #9B857A",
"~. c #97887B",
"^. c #9E8A7D",
"/. c #A18475",
"(. c #A3857A",
"). c #A9877E",
"_. c #A38A7D",
"`. c #A98B7E",
"'. c #A9907F",
"]. c #948A80",
"[. c #9E8C80",
"{. c #A18780",
"}. c #A38D81",
"|. c #AB8D82",
" X c #B18E84",
".X c #A49185",
"XX c #AC9285",
"oX c #A69488",
"OX c #AB9589",
"+X c #AD998D",
"@X c #B19385",
"#X c #B2958A",
"$X c #B39A8D",
"%X c #B99A8E",
"&X c #AE9C91",
"*X c #B39D91",
"=X c #BB9D93",
"-X c #AFA49B",
";X c #B6A295",
":X c #BAA496",
">X c #B7A599",
",X c #BCA69A",
"<X c #BDA99C",
"1X c #BEADA1",
"2X c #C3A697",
"3X c #C1AB9E",
"4X c #C2AEA2",
"5X c #C5B2A5",
"6X c #C9B2A4",
"7X c #C7B5A8",
"8X c #C9B6A9",
"9X c #CCBAAD",
"0X c #CFBDB0",
"qX c #D2C0B3",
/* pixels */
"$ % = 3 t < $ % = = = = : 9 1 O # % # O # % 9 2 3 > = % > 0 0 5 = 1 : % 4 3 3 4 > @ O @ : 3 : 3 : % # # # # # # # @ o % % 1 r % ",
"@ % 2 q 9 2 = % & % = : 1 q = O # 1 % # # $ 2 t q 3 > n U R %.T 0 : @ @ : 1 = 3 w : @ O O = 3 : : @ # # % % % % % o o # # : r : ",
": 1 1 4 = = < 2 < 2 1 % 3 r % < 1 2 2 = % % 1 K { 3 1 } ;.v.t.e.=.U 0 3 7 9 : 1 c T w @ @ % 9 q 1 # o o O # # @ % : # # # @ # # ",
"2 = = 4 2 > 9 4 = = = = 9 4 : 1 b x < @ % O = ` K > @ > u.J.J.I.J.t.j 7 K ..q : J ;.%.> @ @ : 1 1 # o o o o O # % 1 1 : # # # o ",
"2 = = < 2 2 3 2 = = 1 1 : = : 3 y 9 @ O $ # 4 ' n 3 $ 3 C.{.{.}.J.P , 8 K  .y 1 J -.9.J q 3 : 7 b 1 O o O o o o @ 3 1 % # o # # ",
"1 3 - < - 5 - 2 > 3 3 : % : 4 3 = @ O O @ $ 1 ` ` 2 $ x ^.+X*X&XJ.P h ;.%.j q 7 t J K J h h 2 7 r 1 O o O o o o : u 1 # # o o o ",
"2 4 & = 2 5 2 7 > > > 7 9 3 1 : % O % $ % % 1 ` b < $ t ~.*X<X1X*XC.J P J h T c 3 : : 3 t 7 > q q = O O O o O # # % # # o o # # ",
"% = = = = 2 2 2 > > : 1 0 7 = = $ X 1 - > = 2 K 9 = % 9 Q.;X1X4X<X+XQ.D.C.D.E.} : > : 7 7 q w T L : O @ : 1 1 @ % % : % @ % % # ",
"< & & = = = 2 2 > : = > n y < % O * w c Y 6 w } f : 1 ;.XX;X4X5X<X~.R -.R.[.A.J 7 7 7 c R w.1.;.T 3 @ @ q r 3 @ % 1 : @ : r : # ",
"% % = - 2 3 5 < * = 3 2 2 7 2 = @ 7 v t.S.e.I v v f s C.+X<X5X6X3X'.R f P 9.w.C.;.h c T R ;.T R T 3 : : 7 1 : : % 1 r % @ % % % ",
"O % - < 5 5 3 - = * 7 y > - = > 0 U u.W.^.^.S.1.6.v.u.E.;X5X7X8X5X5X;XE.m.C.p.~._.r.;.R w 7 h T J q q : : : 3 : # # 1 % : % o # ",
"O % 2 4 w 4 2 > * * = w 2 > = > *.J.!._.XXXX_.E.D..XoX$X<X5X9X7X7X7X5X1X&X^.4.u.oXoXE.p.w.%.R R 9.R L : @ : 7 : 1 1 : r : 1 % o ",
"O & < 5 w 7 5 = * * : > - 7 > f t.!.OXXXXX+XOX.X.X$X$X,X4X7XqX9X9X7X7X5X5X>XQ.9.^.>X;X+X'.Q.E.E.R.T w @ @ > : r u 1 % 1 : : 1 : ",
"% < < = 5 2 - % + @ : > , 7 7 } S.!.oX_._.OX$X+X$X;X,X<X6X7XqXqX0X9X9X9X7X7X<X&X;X1X1X:X*X+X'.^.;.8 > @ : @ : b r % % : % : 1 % ",
"2 2 > = 5 2 : * + @ > 7 8 7 j v ;.u.u.u.u.P..X;X;X,X<X5X5XqXqXqXqX0X9X9X9X9X7X1X4X3X<X,X;X$X'.E.w.J 5 7 r @ : : : o @ @ 1 1 % : ",
"9 > * = 2 0 > * * > 3 , w j %.R T w.A.M.9. .9.R.+X;X<X5X7XqXqXqX0X0X9X9X9X7X7X7X5X1X<X:X;X+XR.v.e.1.J w 3 @ u : O O o # % # @ r ",
"w 5 - = = < - - 2 7 7 f ..;.u.A.E.^..X.XP.r.{ o.q.s..X1X7X7XqX9X9XqX9X7X9X7X7X5X5X3X<X:X;X+X^.v.e.8.R h > @ 3 = # % $ # O O O % ",
"9 4 < & & % O = 2 9 c #.u.D.Q.{.}..XXX+X&X[.p.o. .T -.R.;X4X5X7X9X9XqXqX9X7X7X5X4X1X,X:X;X*XOXE.w.w.;.R > O O @ @ % : O O # 7 : ",
"9 5 2 < * &   = b n | w.M.S.Q._.{.{.[.}.XXXX[.P.w.%.%.;.E.&X1X1X5X9X9X9X9X5X6X4X3X1X:X:X;X$XOX^.S.1.~ J > O o O O O % O O 1 t 3 ",
"< < - & & & O O 4 ` 9 9 x U %.<.w.v.Z.I.Q._..X[.W.R.s.u.A.'.;X1X6X7X7X7X5X3X3X<X<X:X;X;X*X+X.X^.^.E.w.L 3 @ O O . O $ O @ 1 3 1 ",
"= = = @ % = $ % 2 y @ O = h I U R R %.9.s.-X+X^.W.Q.Q.Q.E..X:X3X4X7X7X4X<X,X:X;X;X*X;X;X-X&XOX~.E.~.S.-.h : = @ $ O O $ % < 1 2 ",
"$ = = O $ % O = 3 = O w ;.6.=.+.~ %.9.9.y.L.R.s.R.Q.^.'.'.+X:X2X3X6X4X2X:X;X$X'.^.~.D.R.~..X.X^.E.E.C.-.w * = : @ O O # 1 1 9 4 ",
"@ = % $ O O O 7 n 1 4 p.C.t.+.v J L -.9.y.y.i.0.4.9.E._.'.OX;X:X3X4X3X:X*X$X_.R.u.-.L L  .o.y.r.C.E.A.-.8 @ = 2 @ # O O < < 9 1 ",
"% 4 = O O O O 9 [ 9 #.P.I.G.5.n J T 3.t K O.' O.y.9...p.W.'.$X:X3X6X,X*XOX'.^.R.S.q.o. .L K L T -.u.u...3 $ % = % % o o # % t 4 ",
"1 y 3 $ O O O q R v r.I.Y.[.I.p.9.e.s.K t u q ] 4.r.u.R e._.#X:X6X6X:X*XOX^.~.W.Q.E.D.A.A.A.A.A.u...[ U < O + $ % $ . o O % 9 4 ",
"q 0 = O O # @ w U P x.U.[.|.{.Y.D.C.u.*.L J o.~.A.p.Z.C.n Z.#X:X6X3X;XOX^.E.E.E.Q.^.[.[.^.^.^._.I.r.U x + O O O O O . o O # 4 e ",
"0 2 + X $ 1 % q Y Y M.U.{.|. X{.!.W.D.C.D.u.C.Q.I.E..XN.=.x r.m..X*XXX!.Z.C.Z.R.J.D.M.y.u.v.v.G.I.M.[ 5 X O O X X o . X # : e e ",
"0 = + O = = @ x +.| M.H.T.|. X X|._.!.Q.W.E.J.W.}.$X_.N.6.> * - w y J } w.w.p.A.a.9.-...R I P P #.=.U = X O O X O O # # # 4 4 % ",
"3 = @ % % % = c =.| 7.U.T.|. X|.|.XXXXoX}.{._._.XXXX!.I.7.> x L.I.3.2 @ 7 L q.q.' O.' ' %.%.P T v 0 7 $   $ O O % # : t : % < % ",
"= % % % % % : [ r.=.5.Y.T.|.). X|.@X X#X@X#X#X#X#X|.XXU.5.0 I.2X2X#X;.* w p.R.R.] u r u J h h } *.U q # O % - @ 1 : 3 t : O # # ",
"> : : % % @ < o.B.m.#.G.{.|. X). X X|.|. X|.@X@XXX#XXXG.#.*.#X:X=X+X6.< r.}.~.E.i.` X.s.q.q 3 T 4.} 3 : $   % 1 J 1 = : : % O # ",
"= = % % % % % O.L.Y.r.7.T.|.|. X X X X X|.@X#X#X%X*X(.m.[ (.%X=X=XXX*.x J.!..X!.I.p.r.r.;...} -.u. .: @ : O . @ 3 : # % : # O # ",
"P w > > : @ % -.P.].Y.B.B.T.|.|. X X X#X#X#X#X#X%X(.B.#.H. X%X2X%X|.#.#.!.{.OX|.{.W.S.Z.u.u.C.C.p.[ % + < % X X + O O $ $ O # $ ",
"R.S.C.y.-.K 8 T B.Y.[.{.B.m.U.}. X#X%X%X%X%X=X%X`.B.#.v.).`.%X2X%X{.#.7.}.|.oXOX|.{.!.I.I.D.P.S.5.b % $ 4 & O o O X o + O O # < ",
"'.^.^.E.D.v.t.=.6.I.[.{.oXI.B.Y.{. X#X#X#X#X).B.5.#.B.). X@X%X%X X{.#.7.|.|.|.|.|.{.(.{.Y.I.I.B.;.2 % < 9 & $ $ + O O + + O % < ",
"^.E.E.~.^.^.E.C.;.Z.!.{.|. X|.(.Y.P.B.B.B.m.l.t.N.Y.(.T. X#X%X%X|.Y.5.5.|.|.{.|.|.{.T.T.Y.K.G.m.[ = O 3 0 < < & < < % % % % & % ",
"~.Q.^.'.+X&XoX}.v.v.U./.}.|.OX+X&X&XOX|.`.|.@X|.).T.U./.`.'.%X%X).H.z.[ Y.|.|.|.T.).T.(.Y.U.G.r.f + < f < < < + < < < < < = % % ",
"'.'..X+X+X&X.X+X{.v.G.!._.|.XX#X*X=X=X=X%X@XXX`.U.F.H.Y.`.`.%X@XT.B.G.@.7. X|.|.|.{.{.T.T.U.B.=.< & x < + & $ X + < < < < < < < ",
"oXoX^.^..X^.K.|.OXH.b.I./._.`.XX#XOX#X#X@X'.'._.K.K.K.`.@X%X2X@XT.V.Y.Y.&.B. X|.|.{.{.T.Y.G.v.Y 5 x ; $ O $ $ + & & + & < % & < ",
"oX&X&X^.S.=.8.T.|.|.v.F.K.W._.`.XX#X#XOX#X%X@X/.K./.`.XX%X2X6X@XU.H.T. X{.j.m.{.|.|.|.T.U.B.r.} n 2 $ $ $ & $ $ $ < < $ + + $ % ",
".X+X+X.XR.s I b.(.(.b.x.F.F.K.W.{.}.'.XX#X%X$XW.W././.`.'.2X2X@XT.F.(.#X$X'.H.8.v.S.G.S.B.P.M.x & $ $ $ $ $ + $ $ & < + X X & & ",
"^..X+XOX~.P d ,.c.c.&.<.l.b.F.J.T.(.`.|.@X$X'./.F.K.K./.'.'.'.'./.H.`.$X$X$X$X'.J.v.e.r.t.e.x O $ < - & & & < & $ $ +   X + $ $ ",
"~.^.OXOX~.=.j P =.<.m @.l.b.V.H.K.W./._.`.'.'./.K.F.F.F.T./././.H.K.XX$X$X$X@X'.|.}.^.Y.Z.R *   + & = - ; < - & + & & ; ; ; ; ; ",
"R.Q..XOX_.J.u.~ m g f @.x.F.F.F.H.U.!.}.`.'.'.'./.`.'.T.H.F.H.V.Z.W.'.@XOX@XXX'.}.(.I.S.=.>   O + + = 6 9 6 6 i 6 ; i p k k k M ",
"b.E.^.oXOX'.E.v.<.[ a +.l.Z.F.F.b.N.I.(.`._.'.|.`.'.#X'.`./.K.F.W././._.'.'._.W.!.W.Z.6.0 $ @ @ + $ 5 0 f 0 a g a a d k k M M M ",
"S.J.~..XOXXX^.K.x.#.s M 1.v.F.F.N.x.2.F._._._./.).).`.`.XX#X/.K.W.W.W.W.!.W.W.W.I.S.7.h = = : > < 0 x c c x a k k k k m M M M M ",
"D.Z.E./.oXOXoX!.I.5.g g =.e.v.b.b.b.,.&.k.c.z.z.z.n.F.H././.T.T.K.K.K.K.K.J.F.D.S.t.m > 7 7 7 t w c K K ` x x k k m m M M M M Q ",
"D.Z.J.~..XoXoX.XY.x.m i Q 2.l.x.b.b.l.>.C B C S H d.h.n.n.F.F.V.F.F.F.F.G.Z.Z.v.x.~ 5 , , w y J K L L K [ c f x x n m [ [ [ M Y ",
"Z.Z.Z.E.W._..X.X^.E.1.s l &.8.t.v.b.b.b.( S C S G G G f.f.d.d.h.l.c.e.l.N.N.N.t.&.P j j s , 7 0 w c J K J c y t h J K K J T T L ",
"b.v.Z.Z.E.^.^.'.'.^.W.u.I Y =.8.l.v.b.V.z.g.G G $.G C A C B B B V ! ,.b.Z.Z.x.:.@.~ ~ R Y P j s 0 8 8 7 5 w w J t J K K J T T J ",
"8.w.8.v.D.E.W.^.^..X^.^.v.) ~ 1.l.b.Z.F.F.c.>./ H / H G F A C N V ( v.S.Z.v.:.+.&.&.&.&.) ~ I I m h 8 7 5 5 7 q w c K L K L L L ",
"&.:._ w.v.E.E.E.^.'..X^.!.G.1._ 8.b.F.F.F.F.V.j.$.H G G A A A D ( e.b.N.v.<.Q ~ ) &.:.:.:.&.@.+.Q I f 6 i w 0 8 7 7 q t J K K K ",
"R ~ ) 1.8.C.J.E.E.^..X.X.X~.G.e.:.l.Z.H.K.K.K.J.V.z.j.>.>.>.2.2.l.x.x.e.&.I I Q ~ &.&.:.:.:.:.@.) R g i g j j x h w 8 8 3 w h K ",
"s Y E ^ :.u.C.D.E.E.^..X.X'.W.E.v.,.c.F.K././.U.U.G.F.Z.N.M.v.x.e.e.7.@.m M Y ~ ~ ) @.&.@.:.:.=.@.Y a s l m M v m v h h w 8 8 8 ",
"&.1.E I ) 8.u.S.D.E.E.^..X.X'.^.K.v.,.v.K.K././.W.K.K.F.F.N.M.x.7.5.@.M l I E ~ ~ ~ ^ ^ @.@.@.@.~ m a g I I I Y I P P M P j j w ",
":.k.) E ~ &.8.C.Z.Z.R.E.^..X.X'._.W.N.,.c.F.F.K.U.K.K.H.F.b.x.7.5.@.Q M M Q ~ ^ ~ ~ ~ ~ ~ ! +.Q Y j d M Y E Q Q Q Q Y I I P l j ",
"P 8.8.) E ) w.8.Z.Z.Z.E.E.~.'.^..X^.W.b.8.8.l.v.N.F.H.N.B.v.7.;.+.~ M Y Q ~ +.! +.Q Q Q Q Q +.+.Y s g Q ~ ~ ~ ~ ~ +.Q Q Q M M Y ",
"d E ,.,.^ E ) w.v.v.b.R.E.E.^.^..X[.^.W.J.v.2.7.b.b.M.x.e.6.&.~ ~ ~ Y E +.@.@.+.~ ~ Q Q Q Q M +.m d I @.@.@.@.@.~ +.~ +.Q M Q Y ",
"d P _ 8.,.E E :.8.u.b.A.V.R.~.~.[.^.[.[.!.E.Z.<.<.6.6.1.<.@.) ~ +.Q Q ! @.@.^ ! ~ E E Y E Q Q M k k ~ &.&.^ @.@.@.@.+.Q Q M Q Q ",
"z p I :.8.8.E ) &.w.v.v.Z.R.E.Q.!.Q.!.[._.^.W.N.+.E Y Q ~ @.&.) ~ Q +.&.:.@.^ +.~ M Y E E Q +.M p M @.&.) &.&.&.@.@.~ Q +.Q +.Q ",
"E d p _ k.l.,.E ) 1.8.v.C.R.R.E.Q.E.Q.Q.~.!.~.D.=.M I ~ ) &.:.) ~ ^ ^ ^ ^ ^ Q Q Q E ~ Q Q Q E z d E ^ ^ ^ ^ @.@.@.+.+.! Q Q Q Q ",
"E d p E 8.k.8.) E ) 8.u.v.Z.Z.Z.I.E.E.E.W.Q.Q.I.r.+.^ ^ ) ) ) ) ^ ^ ^ ~ Q Q E Q E ^ ^ E E ~ E z Z Q ^ ^ &.@.&.&.@.+.Q Q +.Q Q +.",
"W I p p ,.8.g.,.) E _ w.v.Z.Z.R.P.E.E.E.I.E.E.D.e.%.@.&.) ) ) ) ^ ~ ~ E Q E Q ^ ^ :.^ E ! :.! W W ( >.g.,.2.$.@.@.+.Q +.+.Q ! +.",
"W W p d ,.g.g.g.g.E ) 8.u.v.Z.Z.P.I.E.E.E.I.I.D.1.&.&.&.:.&.:.) ^ ^ ^ ~ ~ ^ ^ ^ :.,._ ~ ! _ W W ( g.g.g.g.2.&.@.@.@.+.+.! +.+.Q "
};
